<svg width="656" height="649" viewBox="0 0 656 649" fill="none" xmlns="http://www.w3.org/2000/svg">
<g clip-path="url(#clip0_55_55)" filter="url(#filter0_d_55_55)">
<path d="M580.231 453.19H345.623C341.428 453.19 338.014 449.776 338.014 445.581V103.852C338.014 99.6565 341.428 96.2428 345.623 96.2428H580.231C584.426 96.2428 587.84 99.6552 587.84 103.852V445.58C587.84 449.776 584.426 453.19 580.231 453.19ZM345.623 96.5673C341.606 96.5673 338.339 99.8357 338.339 103.852V445.58C338.339 449.597 341.607 452.864 345.623 452.864H580.231C584.249 452.864 587.516 449.596 587.516 445.58V103.852C587.516 99.8357 584.247 96.5673 580.231 96.5673H345.623Z" fill="#F0F0F0"/>
<path d="M309.692 453.19H75.0835C70.8883 453.19 67.4746 449.776 67.4746 445.581V103.852C67.4746 99.6565 70.8871 96.2428 75.0835 96.2428H309.692C313.887 96.2428 317.301 99.6552 317.301 103.852V445.58C317.302 449.776 313.888 453.19 309.692 453.19ZM75.0835 96.5673C71.0675 96.5673 67.7991 99.8357 67.7991 103.852V445.58C67.7991 449.597 71.0675 452.864 75.0835 452.864H309.692C313.709 452.864 316.976 449.596 316.976 445.58V103.852C316.976 99.8357 313.708 96.5673 309.692 96.5673H75.0835Z" fill="#F0F0F0"/>
<path d="M653.023 532.458H4.02295V532.782H653.023V532.458Z" fill="#E0E0E0"/>
<path d="M613.576 378.271H366.956C366.956 382.445 370.339 385.83 374.515 385.83H606.016C610.19 385.83 613.576 382.447 613.576 378.271Z" fill="#E0E0E0"/>
<path d="M565.137 449.773H417.624V456.767H565.137V449.773Z" fill="#E0E0E0"/>
<path d="M559.916 532.549L580.023 385.831H572.962L552.855 532.549H559.916Z" fill="#E6E6E6"/>
<path d="M576.447 532.549L556.016 385.831H563.077L583.509 532.549H576.447Z" fill="#E6E6E6"/>
<path d="M406.337 532.549L427.304 385.831H420.243L399.275 532.549H406.337Z" fill="#E6E6E6"/>
<path d="M422.868 532.549L402.761 385.831H409.822L429.929 532.549H422.868Z" fill="#E6E6E6"/>
<path d="M621.85 366.139H358.681V378.319H621.85V366.139Z" fill="#E6E6E6"/>
<path d="M453.527 366.184H567.73L568.97 363.38C569.75 361.616 567.716 359.859 564.895 359.859H459.516C457.626 359.859 455.963 360.673 455.441 361.855L453.527 366.184Z" fill="#E0E0E0"/>
<path d="M599.041 286.687L584.423 348.514C584.032 350.163 582.563 351.326 580.869 351.326H490.815C488.459 351.326 486.718 349.127 487.261 346.835L501.879 285.007C502.27 283.36 503.739 282.196 505.433 282.196H595.485C597.843 282.196 599.583 284.394 599.041 286.687Z" fill="#F0F0F0"/>
<path d="M555.285 319.177C554.855 323.068 551.353 326.222 547.462 326.222C543.57 326.222 540.763 323.068 541.192 319.177C541.621 315.285 545.124 312.131 549.015 312.131C552.907 312.131 555.713 315.285 555.285 319.177Z" fill="#E0E0E0"/>
<path d="M509.001 282.196L493.437 351.326H490.815C488.459 351.326 486.718 349.127 487.261 346.835L501.879 285.007C502.27 283.36 503.739 282.196 505.433 282.196H509.001Z" fill="#E0E0E0"/>
<path d="M535.087 351.324L532.017 366.011H541.04L544.109 351.324H535.087Z" fill="#E0E0E0"/>
<path d="M518.85 363.526L520.697 360.928C521.357 360.002 522.424 359.45 523.562 359.45H548.301C549.609 359.45 550.81 360.177 551.416 361.337L552.662 363.719C553.245 364.833 552.436 366.167 551.18 366.167H520.214C518.854 366.17 518.062 364.634 518.85 363.526Z" fill="#E0E0E0"/>
<path d="M482.081 167.177L481.335 165.995L524.8 138.608L567.197 166.607L566.426 167.774L524.782 140.274L482.081 167.177Z" fill="#F0F0F0"/>
<path d="M568.125 166.065H480.593V220.812H568.125V166.065Z" fill="#E0E0E0"/>
<path d="M565.698 218.387V168.491L483.017 168.491V218.387H565.698Z" fill="white"/>
<path d="M494.768 184.135H489.484V189.42H494.768V184.135Z" fill="#F0F0F0"/>
<path d="M502.913 184.135H497.629V189.42H502.913V184.135Z" fill="#F0F0F0"/>
<path d="M511.057 184.135H505.772V189.42H511.057V184.135Z" fill="#F0F0F0"/>
<path d="M519.202 184.135H513.917V189.42H519.202V184.135Z" fill="#F0F0F0"/>
<path d="M527.347 184.135H522.062V189.42H527.347V184.135Z" fill="#F0F0F0"/>
<path d="M535.49 184.135H530.206V189.42H535.49V184.135Z" fill="#F0F0F0"/>
<path d="M543.635 184.135H538.351V189.42H543.635V184.135Z" fill="#F0F0F0"/>
<path d="M551.78 184.135H546.496V189.42H551.78V184.135Z" fill="#F0F0F0"/>
<path d="M559.925 184.135H554.641V189.42H559.925V184.135Z" fill="#F0F0F0"/>
<path d="M494.768 191.406H489.484V196.69H494.768V191.406Z" fill="#F0F0F0"/>
<path d="M502.913 191.406H497.629V196.69H502.913V191.406Z" fill="#F0F0F0"/>
<path d="M511.057 191.406H505.772V196.69H511.057V191.406Z" fill="#F0F0F0"/>
<path d="M519.202 191.406H513.917V196.69H519.202V191.406Z" fill="#F0F0F0"/>
<path d="M527.347 191.406H522.062V196.69H527.347V191.406Z" fill="#F0F0F0"/>
<path d="M535.49 191.406H530.206V196.69H535.49V191.406Z" fill="#F0F0F0"/>
<path d="M543.635 191.406H538.351V196.69H543.635V191.406Z" fill="#F0F0F0"/>
<path d="M551.78 191.406H546.496V196.69H551.78V191.406Z" fill="#F0F0F0"/>
<path d="M559.925 191.406H554.641V196.69H559.925V191.406Z" fill="#F0F0F0"/>
<path d="M494.768 198.676H489.484V203.96H494.768V198.676Z" fill="#F0F0F0"/>
<path d="M502.913 198.676H497.629V203.96H502.913V198.676Z" fill="#F0F0F0"/>
<path d="M511.057 198.676H505.772V203.96H511.057V198.676Z" fill="#F0F0F0"/>
<path d="M519.202 198.676H513.917V203.96H519.202V198.676Z" fill="#F0F0F0"/>
<path d="M527.347 198.676H522.062V203.96H527.347V198.676Z" fill="#F0F0F0"/>
<path d="M535.49 198.676H530.206V203.96H535.49V198.676Z" fill="#F0F0F0"/>
<path d="M543.635 198.676H538.351V203.96H543.635V198.676Z" fill="#F0F0F0"/>
<path d="M551.78 198.676H546.496V203.96H551.78V198.676Z" fill="#F0F0F0"/>
<path d="M559.925 198.676H554.641V203.96H559.925V198.676Z" fill="#F0F0F0"/>
<path d="M494.768 206.495H489.484V211.779H494.768V206.495Z" fill="#F0F0F0"/>
<path d="M502.913 206.495H497.629V211.779H502.913V206.495Z" fill="#F0F0F0"/>
<path d="M511.057 206.495H505.772V211.779H511.057V206.495Z" fill="#F0F0F0"/>
<path d="M519.202 206.495H513.917V211.779H519.202V206.495Z" fill="#F0F0F0"/>
<path d="M548.204 173.374H501.205V177.938H548.204V173.374Z" fill="#E0E0E0"/>
<path d="M527.587 139.107C527.587 140.572 526.399 141.76 524.932 141.76C523.467 141.76 522.279 140.572 522.279 139.107C522.279 137.641 523.467 136.452 524.932 136.452C526.399 136.454 527.587 137.641 527.587 139.107Z" fill="#E0E0E0"/>
<path d="M448.399 112.163H357.125V333.926H448.399V112.163Z" fill="#F0F0F0"/>
<path d="M442.828 117.735H362.689V328.362H442.828V117.735Z" fill="#FAFAFA"/>
<path d="M442.828 126.756V142.657L362.689 222.808V206.895L442.828 126.756Z" fill="white"/>
<path d="M442.828 181.752V204.182L362.689 284.32V261.878L442.828 181.752Z" fill="white"/>
<path d="M405.519 112.163H400.002V333.926H405.519V112.163Z" fill="#F0F0F0"/>
<path d="M287.961 112.163H196.687V333.926H287.961V112.163Z" fill="#F0F0F0"/>
<path d="M282.391 117.735H202.252V328.362H282.391V117.735Z" fill="#FAFAFA"/>
<path d="M282.391 126.756V142.657L202.252 222.808V206.895L282.391 126.756Z" fill="white"/>
<path d="M282.391 181.752V204.182L202.252 284.32V261.878L282.391 181.752Z" fill="white"/>
<path d="M245.082 112.163H239.566V333.926H245.082V112.163Z" fill="#F0F0F0"/>
<path d="M225.136 502.837C225.136 502.837 214.104 505.282 215.744 497.584C217.383 489.887 217.262 487.05 212.779 483.552C208.296 480.054 203.784 478.326 207.217 472.786C210.65 467.246 204.136 462.941 200.77 459.959C197.403 456.978 201.203 454.73 202.095 449.094C202.987 443.458 196.924 444.304 196.448 437.205C195.971 430.107 203.183 421.81 196.982 412.038C196.982 412.038 205.31 416.357 208.047 423.944C210.783 431.53 208.574 437.391 213.493 440.274C218.412 443.158 221.493 448.145 219.822 453.264C218.15 458.383 220.526 461.098 224.558 464.831C228.591 468.564 227.518 470.047 227.016 474.612C226.514 479.177 227.522 478.098 232.139 484.334C236.757 490.573 236.874 500.792 225.136 502.837Z" fill="#F0F0F0"/>
<path d="M226.707 502.497C226.683 502.46 226.664 502.422 226.651 502.379L204.577 435.382C204.482 435.095 204.639 434.783 204.926 434.689C204.93 434.687 204.933 434.687 204.936 434.686C205.222 434.598 205.527 434.755 205.621 435.039L227.693 502.035C227.711 502.088 227.719 502.144 227.722 502.199L226.707 502.497Z" fill="#E0E0E0"/>
<path d="M245.041 502.698C245.041 502.698 256.014 505.13 254.384 497.474C252.753 489.818 252.873 486.995 257.333 483.515C261.793 480.035 266.281 478.317 262.865 472.807C259.45 467.297 265.929 463.013 269.278 460.049C272.627 457.083 268.847 454.846 267.96 449.24C267.073 443.634 273.103 444.477 273.577 437.414C274.051 430.352 266.877 422.099 273.045 412.38C273.045 412.38 264.761 416.676 262.039 424.223C259.319 431.769 261.515 437.599 256.621 440.467C251.728 443.336 248.663 448.297 250.326 453.389C251.989 458.481 249.627 461.181 245.614 464.894C241.602 468.608 242.671 470.084 243.169 474.624C243.667 479.164 242.667 478.091 238.073 484.294C233.482 490.499 233.365 500.665 245.041 502.698Z" fill="#F0F0F0"/>
<path d="M242.468 502.061C242.47 502.007 242.477 501.952 242.496 501.898L264.451 435.257C264.545 434.973 264.848 434.817 265.133 434.905C265.137 434.907 265.139 434.908 265.143 434.909C265.429 435.004 265.584 435.313 265.49 435.598L243.534 502.24C243.521 502.283 243.501 502.322 243.478 502.358L242.468 502.061Z" fill="#E0E0E0"/>
<path d="M232.856 501.304C232.856 501.304 220.23 500.258 224.541 492.56C228.853 484.86 229.667 481.781 226.026 476.545C222.385 471.309 218.127 467.96 223.645 463.168C229.161 458.376 223.615 451.6 220.998 447.288C218.382 442.976 223.199 441.831 226.026 436.09C228.853 430.349 222.078 429.243 223.926 421.481C225.775 413.719 236.253 407.228 232.858 394.704C232.858 394.704 240.343 402.096 240.755 411.13C241.165 420.164 236.854 425.708 241.165 430.431C245.477 435.153 247.119 441.519 243.629 446.446C240.138 451.374 241.78 455.07 244.86 460.408C247.941 465.747 246.297 466.979 244.244 471.701C242.19 476.423 243.627 475.603 246.502 483.815C249.377 492.026 246.109 503.013 232.856 501.304Z" fill="#F5F5F5"/>
<path d="M234.653 501.462C234.64 501.414 234.632 501.367 234.632 501.316L233.239 422.226C233.233 421.888 233.504 421.606 233.843 421.601C233.847 421.601 233.851 421.601 233.856 421.601C234.191 421.601 234.466 421.869 234.472 422.207L235.864 501.294C235.867 501.358 235.856 501.42 235.839 501.478L234.653 501.462Z" fill="#E0E0E0"/>
<path d="M267.239 495.196H205.481C203.706 495.196 202.478 496.969 203.105 498.632L204.019 501.057L204.596 502.593L206.254 506.994L206.834 508.53L208.537 513.049L209.113 514.583L215.907 532.621H256.816L263.61 514.583L264.187 513.049L265.89 508.53L266.471 506.994L268.128 502.593L268.706 501.057L269.62 498.632C270.24 496.969 269.013 495.196 267.239 495.196Z" fill="#E6E6E6"/>
<path d="M119.709 166.652C132.006 166.652 141.974 156.683 141.974 144.387C141.974 132.091 132.006 122.122 119.709 122.122C107.413 122.122 97.4448 132.091 97.4448 144.387C97.4448 156.683 107.413 166.652 119.709 166.652Z" fill="#E0E0E0"/>
<path d="M139.937 147.786C141.811 136.615 134.275 126.039 123.104 124.165C111.933 122.29 101.358 129.826 99.4832 140.997C97.6086 152.168 105.145 162.743 116.316 164.618C127.486 166.493 138.062 158.957 139.937 147.786Z" fill="#FAFAFA"/>
<path d="M119.764 125.741H118.997V130.019H119.764V125.741Z" fill="#E0E0E0"/>
<path d="M119.764 158.645H118.997V162.922H119.764V158.645Z" fill="#E0E0E0"/>
<path d="M105.068 143.948H100.79V144.717H105.068V143.948Z" fill="#E0E0E0"/>
<path d="M137.971 143.948H133.694V144.717H137.971V143.948Z" fill="#E0E0E0"/>
<path d="M132.254 130.911L129.229 133.937L129.772 134.48L132.797 131.454L132.254 130.911Z" fill="#E0E0E0"/>
<path d="M108.987 154.178L105.963 157.203L106.506 157.746L109.53 154.721L108.987 154.178Z" fill="#E0E0E0"/>
<path d="M106.505 130.915L105.962 131.458L108.987 134.483L109.53 133.94L106.505 130.915Z" fill="#E0E0E0"/>
<path d="M129.772 154.177L129.229 154.721L132.254 157.746L132.797 157.202L129.772 154.177Z" fill="#E0E0E0"/>
<path d="M119.246 143.825L119.005 144.438L126.258 147.294L126.499 146.681L119.246 143.825Z" fill="#E0E0E0"/>
<path d="M119.709 144.661H107.747V144.003H119.051V134.718H119.709V144.661Z" fill="#E0E0E0"/>
<path d="M610.121 591.579C610.121 595.011 484.045 597.794 328.521 597.794C172.998 597.794 46.9229 595.012 46.9229 591.579C46.9229 588.147 172.999 585.364 328.521 585.364C484.044 585.364 610.121 588.146 610.121 591.579Z" fill="#F5F5F5"/>
<path d="M277.981 145.852C286.101 137.733 286.101 124.569 277.981 116.449C269.862 108.33 256.697 108.33 248.578 116.449C240.459 124.569 240.459 137.733 248.578 145.852C256.697 153.972 269.862 153.972 277.981 145.852Z" fill="#407BFF"/>
<path d="M273.707 131.145V131.155C273.707 132.114 272.924 132.896 271.955 132.896H265.023V139.827C265.023 140.786 264.241 141.568 263.283 141.568C262.313 141.568 261.53 140.785 261.53 139.827V132.896H254.599C253.64 132.896 252.858 132.113 252.858 131.155V131.145C252.858 130.186 253.641 129.404 254.599 129.404H261.53V122.473C261.53 121.514 262.313 120.732 263.283 120.732C264.242 120.732 265.023 121.515 265.023 122.473V129.404H271.955C272.924 129.404 273.707 130.187 273.707 131.145Z" fill="white"/>
<path d="M263.283 157.216C262.94 157.216 262.663 156.939 262.663 156.596V155.355C262.663 155.012 262.94 154.735 263.283 154.735C263.626 154.735 263.903 155.012 263.903 155.355V156.596C263.903 156.94 263.626 157.216 263.283 157.216ZM263.903 186.35V183.871C263.903 183.528 263.626 183.25 263.283 183.25C262.94 183.25 262.663 183.528 262.663 183.871V186.35C262.663 186.693 262.94 186.97 263.283 186.97C263.626 186.97 263.903 186.693 263.903 186.35ZM263.903 178.911V176.432C263.903 176.089 263.626 175.811 263.283 175.811C262.94 175.811 262.663 176.089 262.663 176.432V178.911C262.663 179.254 262.94 179.532 263.283 179.532C263.626 179.532 263.903 179.254 263.903 178.911ZM263.903 171.472V168.993C263.903 168.65 263.626 168.373 263.283 168.373C262.94 168.373 262.663 168.65 262.663 168.993V171.472C262.663 171.815 262.94 172.093 263.283 172.093C263.626 172.093 263.903 171.816 263.903 171.472ZM263.903 164.035V161.556C263.903 161.213 263.626 160.935 263.283 160.935C262.94 160.935 262.663 161.213 262.663 161.556V164.035C262.663 164.377 262.94 164.655 263.283 164.655C263.626 164.655 263.903 164.377 263.903 164.035ZM265.144 192.549C265.144 192.207 264.867 191.929 264.524 191.929H263.903V191.308C263.903 190.966 263.626 190.688 263.283 190.688C262.94 190.688 262.663 190.966 262.663 191.308V192.549C262.663 192.892 262.94 193.17 263.283 193.17H264.524C264.867 193.17 265.144 192.892 265.144 192.549ZM293.34 192.549C293.34 192.207 293.062 191.929 292.719 191.929H290.37C290.027 191.929 289.749 192.207 289.749 192.549C289.749 192.892 290.027 193.17 290.37 193.17H292.719C293.062 193.17 293.34 192.892 293.34 192.549ZM286.29 192.549C286.29 192.207 286.012 191.929 285.67 191.929H283.32C282.978 191.929 282.7 192.207 282.7 192.549C282.7 192.892 282.978 193.17 283.32 193.17H285.67C286.012 193.17 286.29 192.892 286.29 192.549ZM279.242 192.549C279.242 192.207 278.964 191.929 278.622 191.929H276.272C275.929 191.929 275.652 192.207 275.652 192.549C275.652 192.892 275.929 193.17 276.272 193.17H278.622C278.964 193.17 279.242 192.892 279.242 192.549ZM272.194 192.549C272.194 192.207 271.916 191.929 271.573 191.929H269.224C268.881 191.929 268.604 192.207 268.604 192.549C268.604 192.892 268.881 193.17 269.224 193.17H271.573C271.916 193.17 272.194 192.892 272.194 192.549ZM299.279 192.549C299.279 192.207 299.001 191.929 298.659 191.929H297.418C297.075 191.929 296.797 192.207 296.797 192.549C296.797 192.892 297.075 193.17 297.418 193.17H298.659C299.001 193.17 299.279 192.892 299.279 192.549Z" fill="#407BFF"/>
<path d="M533.116 560.731L534.421 581.591L525.528 582.3L519.555 561.786L533.116 560.731Z" fill="#CE7A63"/>
<path d="M527.598 580.222C527.598 580.222 526.235 578.537 524.506 579.112C522.778 579.687 520.515 582.518 520.515 582.518C520.515 582.518 511.138 585.525 508.607 585.684C506.075 585.842 504.41 587.467 504.203 592.172H536.09C536.09 592.172 536.09 581.111 535.009 579.194C534.07 577.532 532.188 579.669 532.188 579.669L527.598 580.222Z" fill="#263238"/>
<path d="M504.93 590.717C506.77 590.695 508.62 590.674 510.461 590.654C518.523 590.568 526.595 590.484 534.657 590.408C534.966 590.398 534.966 589.929 534.657 589.929C534.114 589.94 533.561 589.94 533.019 589.94C533.019 589.919 533.019 589.907 533.008 589.887C531.839 587.323 533.189 584.707 535.497 583.399C535.763 583.25 535.529 582.836 535.263 582.995C532.753 584.41 531.381 587.207 532.529 589.951L529.116 589.984C521.054 590.068 512.992 590.154 504.93 590.24C504.621 590.238 504.621 590.717 504.93 590.717Z" fill="white"/>
<path d="M521.603 584.447C520.535 582.946 518.732 582.52 517.217 583.652C516.972 583.835 516.736 583.422 516.977 583.242C518.715 581.943 520.803 582.507 522.013 584.206C522.19 584.457 521.778 584.694 521.603 584.447Z" fill="white"/>
<path d="M518.958 585.245C517.889 583.744 516.085 583.319 514.572 584.45C514.326 584.633 514.09 584.221 514.331 584.04C516.069 582.741 518.158 583.306 519.368 585.005C519.546 585.255 519.133 585.493 518.958 585.245Z" fill="white"/>
<path d="M516.225 586.043C515.157 584.543 513.354 584.117 511.839 585.249C511.594 585.432 511.358 585.02 511.599 584.839C513.337 583.539 515.426 584.104 516.635 585.803C516.813 586.054 516.402 586.291 516.225 586.043Z" fill="white"/>
<path d="M464.932 560.511L463.692 581.584L454.713 582.3L451.241 561.577L464.932 560.511Z" fill="#CE7A63"/>
<path d="M456.783 580.222C456.783 580.222 455.42 578.537 453.692 579.112C451.963 579.687 449.7 582.518 449.7 582.518C449.7 582.518 440.323 585.525 437.791 585.684C435.259 585.842 433.043 587.266 432.093 592.172H462.797C462.797 592.172 464.005 581.094 464.192 579.194C464.379 577.295 461.373 579.669 461.373 579.669L456.783 580.222Z" fill="#263238"/>
<path d="M433.005 590.717C434.846 590.695 436.695 590.674 438.536 590.654C446.598 590.568 454.67 590.484 462.732 590.408C463.041 590.398 463.041 589.929 462.732 589.929C462.189 589.94 461.636 589.94 461.094 589.94C461.094 589.919 461.094 589.907 461.083 589.887C459.914 587.323 461.264 584.707 463.572 583.399C463.838 583.25 463.604 582.836 463.338 582.995C460.828 584.41 459.456 587.207 460.605 589.951L457.191 589.984C449.129 590.068 441.067 590.154 433.005 590.24C432.696 590.238 432.696 590.717 433.005 590.717Z" fill="white"/>
<path d="M450.788 584.447C449.72 582.946 447.915 582.52 446.401 583.652C446.155 583.835 445.919 583.422 446.161 583.242C447.899 581.943 449.987 582.507 451.197 584.206C451.376 584.457 450.963 584.694 450.788 584.447Z" fill="white"/>
<path d="M448.143 585.245C447.074 583.744 445.27 583.319 443.757 584.45C443.511 584.633 443.275 584.221 443.517 584.04C445.255 582.741 447.343 583.306 448.553 585.005C448.731 585.255 448.319 585.493 448.143 585.245Z" fill="white"/>
<path d="M445.41 586.043C444.342 584.543 442.538 584.117 441.023 585.249C440.778 585.432 440.542 585.02 440.783 584.839C442.521 583.539 444.61 584.104 445.819 585.803C445.998 586.054 445.587 586.291 445.41 586.043Z" fill="white"/>
<path d="M444.011 340.93C444.011 340.93 438.768 411.351 439.114 442.279C439.472 474.45 449.965 568.065 449.965 568.065H467.146C467.146 568.065 470.314 476.093 471.852 444.499C473.529 410.055 483.821 335.284 483.821 335.284L444.011 340.93Z" fill="#263238"/>
<path opacity="0.2" d="M475.129 406.178C476.47 393.542 478.023 380.484 479.43 369.071L477.418 357.025C477.418 357.025 470.685 375.829 475.129 406.178Z" fill="black"/>
<path d="M468.441 562.867C468.405 564.723 468.27 568.415 468.27 568.415H448.467L447.871 562.867H468.441Z" fill="#F7931A"/>
<path d="M473.328 335.284C473.328 335.284 478.543 412.847 484.15 441.885C490.29 473.683 518.158 568.065 518.158 568.065H536.734C536.734 568.065 524.802 476.497 521.626 445.013C518.179 410.843 516.68 341.845 516.68 341.845L473.328 335.284Z" fill="#263238"/>
<path d="M537.564 562.73C537.745 564.631 538.033 568.414 538.033 568.414H516.278L514.969 562.73H537.564Z" fill="#F7931A"/>
<path d="M519.843 348.448C482.707 350.979 454.787 351.174 439.99 345.593C438.964 280.199 441.249 239.52 444.325 229.577C445.156 226.903 446.973 224.671 449.465 223.399C452.022 222.075 455.929 220.543 461.173 219.764C468.948 218.609 481.824 218.272 490.742 218.298C495.635 218.311 500.658 218.687 504.799 219.102C509.939 219.635 513.301 224.229 513.08 229.396C512.639 239.338 512.6 249.398 512.834 259.263C512.976 264.948 513.197 270.555 513.483 276.046C515.339 311.105 519.778 340.803 519.843 348.448Z" fill="#F7931A"/>
<path opacity="0.2" d="M513.483 276.046L497.533 240.991L512.834 259.263C512.976 264.948 513.197 270.555 513.483 276.046Z" fill="black"/>
<path d="M466.544 167.394C464.583 165.264 458.004 165.084 454.869 169.185C451.524 173.563 447.277 181.673 444.578 179.525C444.578 179.525 445.691 183.542 450.277 183.853C450.277 183.853 447.535 186.847 444.01 185.741C444.01 185.741 445.582 191.278 452.166 192.239C458.213 193.12 466.618 175.815 467.954 172.978C467.948 169.85 467.709 169.969 466.544 167.394Z" fill="#263238"/>
<path d="M470.302 168.155C475.668 167.56 481.118 169.074 485.208 172.598C487.88 174.899 489.952 177.948 489.032 181.573C486.883 190.034 481.173 203.689 481.173 203.689L455.542 183.981C455.542 183.981 455.413 175.764 459.538 171.685C461.683 169.563 466.335 168.596 470.302 168.155Z" fill="#263238"/>
<path d="M465.593 167.693C465.593 167.693 474.42 161.395 486.163 170.126C497.906 178.858 486.114 194.679 486.114 194.679C486.114 194.679 482.354 201.675 485.672 203.391C485.672 203.391 483.571 204.217 482.011 204.037C482.011 204.037 483.15 206.156 484.608 205.973C484.608 205.973 482.578 206.79 478.965 205.172C475.351 203.556 465.593 167.693 465.593 167.693Z" fill="#263238"/>
<path d="M466.156 211.307L466.153 211.318C466.164 211.36 466.169 211.386 466.181 211.426L466.881 216.551C466.864 217.577 466.752 218.587 466.554 219.558C466.389 220.377 466.159 221.164 465.892 221.915C464.616 223.275 463.68 226.605 467.554 227.099C472.444 227.733 482.306 221.691 482.895 219.572C481.457 212.605 480.528 204.551 481.683 198.206L475.353 203.556L466.156 211.307Z" fill="#CE7A63"/>
<path opacity="0.2" d="M466.181 211.427L466.88 216.552C470.115 215.533 473.691 212.915 474.827 209.748C475.63 207.459 474.842 205.128 473.908 204.891L466.181 211.427Z" fill="black"/>
<path d="M455.076 199.504C455.232 200.619 455.424 201.722 455.642 202.814C457.588 212.451 468.904 214.7 476.849 208.757C476.862 208.746 476.862 208.733 476.874 208.733C477.578 208.204 478.259 207.615 478.904 206.951C484.15 201.569 483.58 196.866 484.177 186.419C484.775 175.984 474.501 168.151 464.453 172.291C455.18 176.113 453.494 188.354 455.076 199.504Z" fill="#CE7A63"/>
<path d="M467.586 191.003C467.598 191.846 467.162 192.534 466.612 192.541C466.061 192.549 465.606 191.873 465.594 191.031C465.582 190.188 466.018 189.5 466.569 189.492C467.119 189.485 467.575 190.161 467.586 191.003Z" fill="#263238"/>
<path d="M458.415 191.094C458.427 191.937 457.991 192.625 457.44 192.632C456.89 192.64 456.434 191.964 456.423 191.121C456.411 190.279 456.848 189.591 457.397 189.583C457.948 189.576 458.403 190.252 458.415 191.094Z" fill="#263238"/>
<path d="M464.265 202.479C464.087 202.458 463.984 202.439 463.977 202.436C463.803 202.398 463.693 202.228 463.729 202.054C463.767 201.882 463.935 201.773 464.111 201.807C464.281 201.843 468.447 202.666 469.617 197.964C469.658 197.792 469.839 197.683 470.006 197.73C470.18 197.772 470.284 197.948 470.241 198.12C469.109 202.683 465.341 202.6 464.265 202.479Z" fill="#263238"/>
<path d="M484.171 187.4C484.171 187.4 481.575 189.337 481.032 191.982C480.87 192.773 480.325 192.862 480.325 192.862L476.539 193.17C476.539 193.17 478.848 183.099 476.143 182.888C473.438 182.678 476.929 178.458 475.398 177.592C471.783 175.548 461.405 174.145 456.612 179.896C456.612 179.896 458.449 173.858 463.798 171.152C469.147 168.445 479.154 168.994 482.551 174.371C485.948 179.748 484.171 187.4 484.171 187.4Z" fill="#263238"/>
<path d="M488.69 193.364C487.932 196.08 485.991 198.193 483.956 199.299C480.892 200.962 478.587 198.41 478.79 195.114C478.973 192.147 480.786 187.706 484.173 187.401C487.507 187.099 489.555 190.26 488.69 193.364Z" fill="#CE7A63"/>
<path d="M455.907 187.604C456.052 187.603 456.191 187.526 456.267 187.391C456.604 186.785 457.036 186.407 457.55 186.267C458.397 186.037 459.23 186.51 459.239 186.516C459.431 186.632 459.691 186.569 459.806 186.369C459.923 186.172 459.857 185.918 459.66 185.801C459.615 185.775 458.524 185.143 457.332 185.466C456.594 185.666 455.99 186.179 455.541 186.987C455.429 187.187 455.501 187.44 455.702 187.552C455.767 187.587 455.837 187.604 455.907 187.604Z" fill="#263238"/>
<path d="M471.832 187.272C471.893 187.268 471.954 187.25 472.01 187.217C472.208 187.103 472.278 186.851 472.163 186.652C472.137 186.606 471.503 185.518 470.307 185.209C469.566 185.017 468.789 185.164 467.998 185.644C467.801 185.763 467.739 186.018 467.858 186.214C467.977 186.411 468.233 186.472 468.428 186.353C469.018 185.994 469.579 185.879 470.093 186.01C470.947 186.228 471.439 187.056 471.443 187.065C471.526 187.207 471.679 187.282 471.832 187.272Z" fill="#263238"/>
<path d="M462.556 190.286C462.556 190.286 461.952 192.975 459.83 194.778C457.706 196.581 461.916 198.153 461.916 198.153L462.556 190.286Z" fill="#BA4D3C"/>
<path d="M480.631 189.422C475.333 188.889 472.032 190.777 471.204 191.323C470.956 189.01 469.448 187.218 467.612 187.218C465.676 187.218 464.101 189.212 463.992 191.712C462.095 190.589 460.784 191.255 460.259 191.65C460.126 189.18 458.564 187.218 456.642 187.218C454.634 187.218 453 189.355 453 191.983C453 194.609 454.634 196.747 456.642 196.747C458.632 196.747 460.249 194.648 460.279 192.056C460.451 191.882 461.774 190.684 463.978 192.083C464.02 194.662 465.63 196.746 467.612 196.746C469.622 196.746 471.256 194.609 471.256 191.982C471.256 191.883 471.238 191.791 471.234 191.694C471.613 191.417 474.921 189.159 480.599 189.744C480.686 189.759 480.769 189.688 480.777 189.599C480.786 189.511 480.72 189.431 480.631 189.422ZM456.642 196.421C454.813 196.421 453.324 194.43 453.324 191.982C453.324 189.534 454.813 187.542 456.642 187.542C458.472 187.542 459.961 189.533 459.961 191.982C459.959 194.43 458.472 196.421 456.642 196.421ZM467.612 196.421C465.784 196.421 464.295 194.43 464.295 191.982C464.295 189.534 465.782 187.542 467.612 187.542C469.443 187.542 470.931 189.533 470.931 191.982C470.93 194.43 469.443 196.421 467.612 196.421Z" fill="white"/>
<path d="M443.663 232.186L432.526 258.847C430.657 263.26 428.749 267.648 426.815 271.944C425.854 274.086 424.855 276.201 423.855 278.239C422.856 280.277 421.831 282.276 420.857 283.912C420.559 284.444 420.208 284.963 420 285.249L419.987 285.261L418.547 285.949L416.963 286.663L413.718 288.078L400.362 293.737C391.392 297.541 382.41 301.461 373.519 305.601L376.66 315.388C386.356 313.545 395.936 311.377 405.489 308.95C410.252 307.691 415.016 306.458 419.806 305.017L423.44 303.914L425.283 303.33L427.243 302.655L427.983 302.382L428.321 302.239L429.658 301.655C429.904 301.538 430.073 301.474 430.358 301.331C430.644 301.162 430.917 301.006 431.176 300.825C431.449 300.656 431.721 300.461 431.877 300.344C432.669 299.734 433.188 299.254 433.655 298.787C434.239 298.19 434.72 297.644 435.135 297.138C435.927 296.191 436.498 295.373 437.082 294.555C438.069 293.127 438.925 291.751 439.73 290.415C440.327 289.441 440.872 288.494 441.417 287.546C442.689 285.261 443.884 283.003 445.039 280.757C447.362 276.253 449.478 271.736 451.555 267.219C455.669 258.159 459.499 249.125 462.99 239.793L443.663 232.186ZM420.597 284.963L420.52 285.015L420.468 285.041L420.597 284.95C420.636 284.924 420.675 284.898 420.714 284.885C420.675 284.911 420.636 284.937 420.597 284.963Z" fill="#F7931A"/>
<path opacity="0.2" d="M442.664 248.502C441.586 256.225 439.743 290.324 439.743 290.324C439.743 290.324 439.743 290.35 439.73 290.415C438.925 291.752 438.069 293.127 437.082 294.555C436.498 295.373 435.927 296.191 435.135 297.138C435.849 280.77 442.664 248.502 442.664 248.502Z" fill="black"/>
<path d="M377.465 312.307C376.952 309.011 375.97 306.689 375.97 306.689C375.97 306.689 373.282 303.812 370.028 303.741C366.774 303.668 364.194 302.746 361.771 302.858C359.348 302.973 361.923 304.994 363.51 305.792C365.098 306.59 366.889 307.512 366.097 308.607C365.304 309.703 354.705 314.486 353.779 316.129C352.853 317.772 354.81 317.536 354.81 317.536C354.81 317.536 352.441 318.627 352.48 319.908C352.519 321.189 354.213 320.951 354.213 320.951C354.213 320.951 352.647 321.739 353.33 322.779C353.688 323.325 356.382 322.893 358.926 322.378C358.4 322.628 358.028 322.94 357.969 323.328C357.729 324.913 361.234 324.392 364.037 324.035C366.841 323.678 369.691 322.408 371.641 320.279C373.588 318.15 377.977 315.602 377.465 312.307ZM363.382 321.445C363.496 321.428 363.584 321.42 363.618 321.428C363.618 321.428 363.531 321.433 363.382 321.445Z" fill="#CE7A63"/>
<path d="M354.663 321.037C357.377 319.809 360.129 318.672 362.9 317.645C363.191 318.368 363.537 319.052 363.929 319.729C364.135 320.057 364.552 319.631 364.366 319.303C363.171 317.277 362.443 314.961 362.199 312.468C362.159 312.064 361.628 312.198 361.668 312.601C361.729 313.224 361.818 313.82 361.942 314.416C361.895 314.389 361.841 314.389 361.786 314.408C359.562 315.044 357.413 315.955 355.342 317.14C355.032 317.327 355.239 317.895 355.568 317.708C357.594 316.55 359.697 315.649 361.867 315.032C361.949 315.004 362.003 314.948 362.04 314.875C362.203 315.636 362.421 316.377 362.685 317.091C359.913 318.118 357.171 319.246 354.448 320.483C354.118 320.629 354.333 321.186 354.663 321.037Z" fill="#BA4D3C"/>
<path d="M365.061 314.757C367.164 311.911 370.339 310.842 373.276 311.926C373.607 312.052 373.814 311.453 373.481 311.328C370.295 310.147 366.901 311.345 364.625 314.404C364.399 314.727 364.834 315.062 365.061 314.757Z" fill="#BA4D3C"/>
<path d="M511.316 223.044C517.652 231.287 523.719 239.702 529.708 248.197C532.709 252.439 535.663 256.718 538.592 261.028C541.558 265.35 544.389 269.623 547.347 274.23L547.912 275.115L548.6 276.244L548.94 276.81L549.024 276.952L549.328 277.516L549.648 278.187C549.753 278.421 549.847 278.656 549.885 278.769C550.099 279.352 550.291 279.998 550.365 280.349L550.507 280.979L550.594 281.477C550.805 282.773 550.84 283.683 550.875 284.561C550.898 285.412 550.899 286.214 550.881 286.967C550.807 289.985 550.574 292.689 550.32 295.399C549.779 300.784 549.037 306.005 548.233 311.212C546.615 321.617 544.578 331.857 542.178 342.102L531.29 340.803C531.291 330.45 531.408 320.061 531.555 309.804C531.617 304.68 531.649 299.558 531.57 294.584C531.534 292.116 531.461 289.633 531.267 287.468C531.22 286.924 531.158 286.432 531.094 285.991C531.032 285.576 530.937 285.194 530.914 285.216C530.911 285.223 530.91 285.236 530.91 285.236L530.934 285.394C530.939 285.428 531.02 285.769 531.129 286.045L531.272 286.404C531.337 286.557 531.408 286.709 531.486 286.857L531.679 287.205L531.633 287.142L531.444 286.892L530.544 285.67C527.619 281.739 524.374 277.608 521.286 273.513C518.146 269.415 515.008 265.305 511.904 261.167C505.68 252.902 499.494 244.587 493.545 236.12L511.316 223.044Z" fill="#F7931A"/>
<path d="M541.958 341.445C539.585 335.284 534.275 336.857 532.716 338.421C532.716 338.421 528.772 342.411 527.972 344.698C527.173 346.984 526 349.216 526.409 350.259C526.599 350.743 527.285 350.23 527.968 349.546C527.558 350.744 527.3 351.716 527.339 352.193C527.339 352.193 527.936 358.497 530.39 360.466C532.845 362.435 532.38 356.768 532.38 356.768C532.38 356.768 532.675 362.385 538.612 360.574C540.887 359.881 543.412 353.146 543.816 349.389C544.849 346.195 541.958 341.445 541.958 341.445Z" fill="#CE7A63"/>
<path d="M466.987 217.577C466.987 217.577 461.927 217.022 459.23 220.099C458.149 223.876 460.532 228.374 463.108 232.911L468.705 227.132C469.082 227.134 466.185 222.209 466.987 217.577Z" fill="#F7931A"/>
<path opacity="0.2" d="M466.987 217.577C466.987 217.577 461.927 217.022 459.23 220.099C458.149 223.876 460.532 228.374 463.108 232.911L468.705 227.132C469.082 227.134 466.185 222.209 466.987 217.577Z" fill="black"/>
<path d="M482.031 214.815C479.633 220.339 474.523 223.982 468.706 227.132L471.866 232.911L491.371 218.299C491.371 218.299 485.748 213.343 482.031 214.815Z" fill="#F7931A"/>
<path opacity="0.2" d="M482.031 214.815C479.633 220.339 474.523 223.982 468.706 227.132L471.866 232.911L491.371 218.299C491.371 218.299 485.748 213.343 482.031 214.815Z" fill="black"/>
<path opacity="0.2" d="M468.741 235.468C468.741 236.018 468.295 236.463 467.745 236.463C467.195 236.463 466.75 236.018 466.75 235.468C466.75 234.919 467.195 234.472 467.745 234.472C468.295 234.472 468.741 234.919 468.741 235.468Z" fill="black"/>
<path opacity="0.2" d="M468.741 241.985C468.741 242.534 468.295 242.98 467.745 242.98C467.195 242.98 466.75 242.535 466.75 241.985C466.75 241.436 467.195 240.989 467.745 240.989C468.295 240.989 468.741 241.436 468.741 241.985Z" fill="black"/>
<path opacity="0.2" d="M468.741 248.502C468.741 249.053 468.295 249.498 467.745 249.498C467.195 249.498 466.75 249.053 466.75 248.502C466.75 247.953 467.195 247.507 467.745 247.507C468.295 247.507 468.741 247.953 468.741 248.502Z" fill="black"/>
<path d="M344.484 568.576L347.147 582.044H354.267L355.216 568.576H344.484Z" fill="#FFC3BD"/>
<path d="M353.329 580.334C353.329 580.334 354.679 578.667 356.392 579.236C358.104 579.806 360.346 582.61 360.346 582.61C360.346 582.61 369.633 585.589 372.141 585.746C374.649 585.903 376.844 587.314 377.785 592.174H347.371C347.371 592.174 346.174 581.2 345.989 579.318C345.803 577.437 348.782 579.788 348.782 579.788L353.329 580.334Z" fill="#263238"/>
<path d="M376.881 590.724C375.052 590.706 373.232 590.687 371.404 590.669C363.416 590.589 355.426 590.499 347.439 590.419C347.134 590.419 347.134 589.944 347.439 589.953C347.976 589.962 348.524 589.962 349.061 589.971C349.061 589.953 349.07 589.925 349.079 589.909C350.227 587.371 348.9 584.78 346.605 583.48C346.337 583.336 346.578 582.924 346.839 583.076C349.322 584.484 350.685 587.254 349.546 589.971C350.676 589.989 351.797 589.998 352.926 590.006C360.905 590.086 368.895 590.176 376.882 590.256C377.186 590.258 377.186 590.733 376.881 590.724Z" fill="#F7931A"/>
<path d="M359.267 584.521C360.325 583.034 362.112 582.612 363.613 583.734C363.856 583.916 364.091 583.507 363.85 583.328C362.128 582.041 360.059 582.6 358.862 584.283C358.686 584.53 359.093 584.765 359.267 584.521Z" fill="white"/>
<path d="M361.888 585.311C362.946 583.825 364.733 583.403 366.232 584.523C366.475 584.705 366.71 584.296 366.47 584.117C364.748 582.831 362.679 583.389 361.482 585.072C361.307 585.32 361.714 585.556 361.888 585.311Z" fill="white"/>
<path d="M364.594 586.102C365.652 584.615 367.438 584.193 368.939 585.314C369.181 585.495 369.416 585.086 369.176 584.907C367.454 583.621 365.385 584.179 364.188 585.864C364.011 586.112 364.419 586.347 364.594 586.102Z" fill="white"/>
<path d="M280.781 568.672L282.258 582.044H289.379L291.512 568.672H280.781Z" fill="#FFC3BD"/>
<path d="M288.441 580.334C288.441 580.334 289.791 578.667 291.503 579.236C293.215 579.806 295.456 582.61 295.456 582.61C295.456 582.61 304.744 585.589 307.251 585.746C309.759 585.903 311.954 587.314 312.895 592.174H282.482C282.482 592.174 281.285 581.2 281.099 579.318C280.914 577.437 283.892 579.788 283.892 579.788L288.441 580.334Z" fill="#263238"/>
<path d="M311.993 590.724C310.164 590.706 308.344 590.687 306.515 590.669C298.527 590.589 290.538 590.499 282.55 590.419C282.245 590.419 282.245 589.944 282.55 589.953C283.088 589.962 283.635 589.962 284.173 589.971C284.173 589.953 284.182 589.925 284.191 589.909C285.338 587.371 284.012 584.78 281.717 583.48C281.448 583.336 281.69 582.924 281.951 583.076C284.434 584.484 285.797 587.254 284.658 589.971C285.788 589.989 286.909 589.998 288.038 590.006C296.018 590.086 304.006 590.176 311.994 590.256C312.298 590.258 312.298 590.733 311.993 590.724Z" fill="#F7931A"/>
<path d="M294.381 584.521C295.438 583.034 297.226 582.612 298.726 583.734C298.969 583.916 299.204 583.507 298.964 583.328C297.241 582.041 295.172 582.6 293.976 584.283C293.798 584.53 294.205 584.765 294.381 584.521Z" fill="white"/>
<path d="M297 585.311C298.058 583.825 299.845 583.403 301.345 584.523C301.588 584.705 301.823 584.296 301.583 584.117C299.86 582.831 297.791 583.389 296.595 585.072C296.418 585.32 296.826 585.556 297 585.311Z" fill="white"/>
<path d="M299.706 586.102C300.764 584.615 302.551 584.193 304.051 585.314C304.293 585.495 304.528 585.086 304.288 584.907C302.566 583.621 300.497 584.179 299.299 585.864C299.125 586.112 299.532 586.347 299.706 586.102Z" fill="white"/>
<path d="M342.116 569.05H357.828C359.187 548.816 363.034 481.771 359.994 448.594C362.18 402.56 355.145 341.454 355.145 341.454H305.371C305.371 341.454 309.018 382.345 325.39 447.931C325.278 499.892 337.961 551.838 342.116 569.05Z" fill="#F7931A"/>
<path opacity="0.2" d="M342.116 569.05H357.828C359.187 548.816 363.034 481.771 359.994 448.594C362.18 402.56 355.145 341.454 355.145 341.454H305.371C305.371 341.454 309.018 382.345 325.39 447.931C325.278 499.892 337.961 551.838 342.116 569.05Z" fill="white"/>
<path opacity="0.2" d="M322.707 436.908C331.705 400.155 323.804 352.497 323.804 352.497L316.039 406.935L322.707 436.908Z" fill="black"/>
<path d="M340.244 568.655L341.397 574.627L359.414 574.549L359.425 568.576L340.244 568.655Z" fill="#263238"/>
<path d="M278.541 569.63H294.253C299.852 548.815 311.097 481.892 312.896 448.715C321.797 402.681 326.056 341.454 326.056 341.454H276.281C276.281 341.454 271.651 382.814 278.458 448.399C277.135 505.579 278.184 551.838 278.541 569.63Z" fill="#F7931A"/>
<path opacity="0.2" d="M278.541 569.63H294.253C299.852 548.815 311.097 481.892 312.896 448.715C321.797 402.681 326.056 341.454 326.056 341.454H276.281C276.281 341.454 271.651 382.814 278.458 448.399C277.135 505.579 278.184 551.838 278.541 569.63Z" fill="white"/>
<path d="M277.168 568.64L277.135 574.56L295.296 574.562L296.247 568.643L277.168 568.64Z" fill="#263238"/>
<path d="M361.656 348.967C327.129 362.233 270.887 352.615 270.887 352.615C271.263 343.152 271.613 328.511 271.808 312.558C271.86 308.275 271.899 303.901 271.925 299.501C271.977 291.064 271.977 282.549 271.912 274.514C271.899 273.865 271.899 273.216 271.886 272.58C271.847 268.634 271.782 264.818 271.704 261.21C271.691 260.768 271.691 260.327 271.678 259.886C271.523 252.785 271.263 246.503 270.938 241.48C270.302 232.017 275.455 223.204 284.814 221.633C287.657 221.153 290.733 220.725 293.926 220.387C294.679 220.297 295.458 220.232 296.236 220.154C305.102 219.284 314.837 218.895 323.715 219.154C324.156 219.154 324.611 219.167 325.052 219.18C325.273 219.193 325.532 219.193 325.753 219.206C326.129 219.219 326.532 219.232 326.908 219.258C330.854 219.414 334.618 219.712 337.98 220.154C345.612 221.14 352.388 227.163 352.518 234.873C352.635 241.934 353.322 256.848 354.322 273.67C354.711 280.03 355.14 286.689 355.607 293.283C357.411 319.256 359.709 344.424 361.656 348.967Z" fill="#263238"/>
<path opacity="0.2" d="M291.11 248.502C291.11 248.502 290.363 285.164 292.802 289.616C295.241 294.068 342.395 307.527 342.395 307.527C318.792 304.319 295.96 300.723 283.878 291.725L291.11 248.502Z" fill="black"/>
<path opacity="0.2" d="M344.016 318.296C316.537 324.799 284.399 316.452 271.808 312.558C271.86 308.275 271.899 303.901 271.925 299.501C291.278 313.817 344.016 318.296 344.016 318.296Z" fill="black"/>
<path d="M320.661 241.589L316.031 292.916L325.289 311.56L332.52 291.184L325.037 241.589H320.661Z" fill="#F7931A"/>
<path d="M321.764 230.548L316.766 237.96L322.64 244.755L328.515 236.008L321.764 230.548Z" fill="#F7931A"/>
<path d="M331.921 169.032C326.526 167.115 320.53 167.356 315.451 170.002C312.135 171.729 309.253 174.375 309.325 178.341C309.491 187.599 312.071 203.085 312.071 203.085L343.32 188.958C343.32 188.958 345.596 181.203 341.937 176.257C339.219 172.585 335.91 170.45 331.921 169.032Z" fill="#263238"/>
<path d="M320.253 168.258C320.253 168.258 316.031 165.905 311.788 170.286C308.251 173.937 309.797 185.824 309.797 185.824L320.253 168.258Z" fill="#263238"/>
<path d="M317.118 169.237C317.118 169.237 318.335 162.173 331.228 164.283C344.123 166.392 354.344 177.041 349.639 182.617C345.109 187.985 331.228 179.047 331.228 179.047L317.118 169.237Z" fill="#263238"/>
<path d="M325.727 214.594L325.728 214.607C325.706 214.648 325.695 214.672 325.673 214.713L323.706 219.834C323.475 220.899 323.345 221.968 323.314 223.018C323.286 223.905 323.331 224.773 323.426 225.613C324.412 227.328 324.572 230.992 320.451 230.562C315.248 230.029 306.428 221.867 306.335 219.537C309.511 212.692 312.53 204.131 312.878 197.299L318.116 204.36L325.727 214.594Z" fill="#FFC3BD"/>
<path d="M321.764 230.548C322.995 227.83 322.982 224.554 323.415 221.619C323.415 221.619 323.642 219.436 324.276 218.351C324.276 218.351 327.839 217.521 329.923 219.405C330.755 225.094 330.093 230.735 328.418 236.344L321.764 230.548Z" fill="#263238"/>
<path d="M302.031 219.659C302.031 219.659 304.915 214.115 308.866 213.439C309.346 220.133 312.066 225.438 321.764 230.547L316.031 239.047C308.055 232.53 303.568 226.07 302.031 219.659Z" fill="#263238"/>
<g opacity="0.2">
<path d="M325.671 214.713L323.705 219.834C320.613 217.996 317.555 214.426 317.152 210.88C316.879 208.321 318.258 206.107 319.28 206.089L325.671 214.713Z" fill="black"/>
</g>
<path d="M340.034 205.097C339.603 206.211 339.135 207.302 338.646 208.377C334.298 217.856 322.067 217.431 315.307 209.366C315.298 209.35 315.3 209.338 315.287 209.335C314.689 208.618 314.128 207.845 313.623 207.002C309.511 200.172 311.243 195.454 313.162 184.522C315.078 173.604 327.588 168.008 336.957 174.722C345.603 180.919 344.373 193.968 340.034 205.097Z" fill="#FFC3BD"/>
<path d="M319.461 188.733C319.461 188.733 319.406 197.855 322.976 199.153C326.545 200.451 329.2 197.423 333.118 201.208C333.118 201.208 335.688 199.854 338.061 201.64C340.434 203.426 340.033 204.487 340.033 204.487C340.033 204.487 339.129 218.095 326.671 216.519C314.214 214.944 312.699 202.722 313.565 196.232L316.022 188.171L319.461 188.733Z" fill="#263238"/>
<path d="M327.564 201.459C327.564 201.459 330.822 202.636 335.288 203.68C335.288 203.68 333.714 207.335 329.764 205.64C327.249 204.558 327.564 201.459 327.564 201.459Z" fill="white"/>
<path d="M337.91 173.706C333.044 169.614 322.577 167.751 317.764 172.478C312.951 177.206 312.928 185.539 312.928 185.539C312.928 185.539 312.798 187.046 313.728 188.039C313.819 188.126 313.926 188.281 314.041 188.459L319.458 189.343C319.89 187.112 320.79 183.041 322.312 182.829C325.163 182.429 323.221 179.288 323.833 177.524C325.822 171.793 341.413 175.712 343.206 184.48C343.206 184.48 342.776 177.799 337.91 173.706Z" fill="#263238"/>
<path d="M306.816 190.598C306.94 193.586 308.43 196.239 310.264 197.875C313.023 200.336 316.023 198.26 316.614 194.808C317.146 191.7 316.35 186.674 312.929 185.537C309.557 184.416 306.676 187.182 306.816 190.598Z" fill="#FFC3BD"/>
<path d="M329.148 191.241C328.947 192.078 329.229 192.863 329.775 192.994C330.322 193.126 330.929 192.553 331.129 191.716C331.33 190.879 331.05 190.093 330.502 189.962C329.956 189.831 329.348 190.404 329.148 191.241Z" fill="#263238"/>
<path d="M338 193.331C337.799 194.168 338.079 194.953 338.627 195.084C339.174 195.215 339.781 194.644 339.98 193.807C340.182 192.97 339.9 192.184 339.354 192.053C338.807 191.921 338.2 192.493 338 193.331Z" fill="#263238"/>
<path d="M341.808 190.789C341.659 190.753 341.533 190.64 341.489 190.481C341.288 189.774 340.933 189.28 340.436 189.01C339.617 188.567 338.642 188.853 338.632 188.856C338.406 188.929 338.153 188.802 338.082 188.567C338.009 188.335 338.139 188.088 338.371 188.015C338.423 187.998 339.704 187.612 340.856 188.235C341.569 188.621 342.068 189.296 342.337 190.24C342.404 190.474 342.268 190.718 342.034 190.784C341.956 190.806 341.88 190.806 341.808 190.789Z" fill="#263238"/>
<path d="M327.338 187.342C327.269 187.325 327.204 187.292 327.146 187.244C326.943 187.077 326.915 186.777 327.082 186.575C327.121 186.528 328.052 185.418 329.467 185.299C330.344 185.226 331.197 185.541 332 186.241C332.2 186.415 332.222 186.716 332.048 186.915C331.874 187.115 331.573 187.134 331.375 186.961C330.775 186.441 330.162 186.201 329.554 186.249C328.542 186.329 327.826 187.173 327.818 187.182C327.697 187.329 327.509 187.383 327.338 187.342Z" fill="#263238"/>
<path d="M334.97 191.461C334.97 191.461 335.41 195.352 336.593 198.046C337.779 200.751 333.118 199.74 333.118 199.74L334.97 191.461Z" fill="#ED847E"/>
<path d="M369.947 315.893C368.209 312.884 361.854 310.131 361.854 310.131C361.024 309.84 358.934 309.856 356.648 309.987L356.897 309.964C356.897 309.964 361.057 307.579 360.01 307C358.962 306.421 356.431 307.352 353.895 307.882C351.359 308.411 348.508 310.745 348.508 310.745C346.652 311.869 345.58 315.363 346.891 319.979C346.891 319.979 352.193 325.024 355.964 325.719C359.685 326.633 367.292 327.095 368.984 324.769C372.535 319.891 365.979 316.46 365.979 316.46C365.979 316.46 371.685 318.903 369.947 315.893Z" fill="#FFC3BD"/>
<path d="M346.456 308.548L344.976 318.711C334.19 318.127 323.546 317.153 312.838 315.726C307.477 315.025 302.129 314.168 296.717 313.155C294.004 312.649 291.291 312.065 288.513 311.377C285.736 310.676 282.958 309.936 279.817 308.716C279.025 308.405 278.194 308.054 277.286 307.613C276.377 307.146 275.417 306.627 274.158 305.666C273.522 305.173 272.808 304.576 271.951 303.563C271.536 303.07 271.055 302.395 270.614 301.577C270.38 301.11 270.173 300.695 269.965 300.124C269.874 299.838 269.783 299.552 269.692 299.267L269.628 298.981C269.238 297.411 269.147 296.489 269.03 295.568C268.667 292.154 268.602 289.441 268.537 286.611C268.485 281.043 268.576 275.656 268.784 270.257C269.147 259.47 269.926 248.853 271.016 238.144L291.707 239.948C291.408 245.166 290.928 250.449 290.59 255.693L289.37 271.412C288.981 276.63 288.552 281.848 288.332 286.91C288.241 288.688 288.163 290.518 288.15 292.102C289.734 292.842 291.642 293.569 293.55 294.231C295.886 295.035 298.313 295.788 300.767 296.541C305.673 298.034 310.722 299.384 315.784 300.734C325.922 303.382 336.228 305.978 346.456 308.548Z" fill="#263238"/>
<path d="M437.615 240.831C430.645 247.412 423.402 253.59 415.912 259.548C412.187 262.559 408.345 265.428 404.386 268.323C402.374 269.724 400.349 271.126 398.052 272.541C397.468 272.892 396.871 273.242 396.209 273.605C395.534 273.982 394.833 274.358 393.794 274.787C393.236 274.994 392.665 275.241 391.445 275.513L390.913 275.604C390.731 275.63 390.446 275.669 390.212 275.682C389.693 275.721 389.031 275.76 387.979 275.63L387.603 275.565L387.071 275.462C386.733 275.384 386.383 275.28 386.058 275.163L385.877 275.111L385.513 274.981C385.072 274.813 384.488 274.605 384.15 274.449L383.034 273.956C380.269 272.671 378.115 271.451 375.908 270.192C373.727 268.92 371.625 267.674 369.574 266.35C365.472 263.728 361.448 261.093 357.528 258.341C357.321 258.198 357.113 258.055 356.905 257.913C355.685 257.056 354.478 256.199 353.284 255.343C346.911 250.8 340.719 246.114 334.645 241.129L347.339 224.697C354.906 230.096 362.396 235.795 369.807 241.402C373.533 244.167 377.206 247.009 380.905 249.696C382.761 251.033 384.579 252.396 386.383 253.668C387.681 254.577 389.031 255.498 390.225 256.251C391.873 255.485 393.626 254.577 395.378 253.668C399.441 251.604 403.516 249.32 407.644 247.1C415.873 242.622 424.194 238.079 432.657 233.809L437.615 240.831Z" fill="#263238"/>
<path opacity="0.2" d="M356.905 257.913C355.685 257.056 354.478 256.199 353.283 255.343L352.18 237.599L356.905 257.913Z" fill="black"/>
<path d="M436.772 240.991C436.772 240.991 439.39 240.813 440.504 238.994C442.663 235.468 446.063 234.821 447.426 234.072C448.789 233.325 447.227 231.002 443.769 231.745C443.769 231.745 445.252 226.929 446.445 225.764C447.638 224.598 453.927 222.105 453.807 221.2C453.688 220.295 448.823 221.758 445.983 223.044C443.143 224.331 437.381 231.463 432.192 234.018C432.194 234.019 430.149 239.417 436.772 240.991Z" fill="#FFC3BD"/>
<path d="M189.746 235.373C190.879 243.919 191.719 252.513 192.468 261.101C192.874 265.39 193.166 269.693 193.534 273.973L194.014 280.377L194.482 286.099C194.45 286.254 194.651 287.203 194.894 288.047C195.126 288.913 195.422 289.864 195.729 290.816C196.34 292.73 197.049 294.691 197.737 296.675C199.118 300.653 200.645 304.643 202.106 308.676C205.086 316.715 208.113 324.825 210.924 332.999L201.712 337.568C196.88 330.246 192.417 322.783 188.129 315.148C185.961 311.34 183.921 307.46 181.878 303.507C180.861 301.522 179.898 299.501 178.931 297.394C178.45 296.333 177.975 295.268 177.503 294.092C177.031 292.9 176.566 291.787 176.074 289.833L175.903 289.053L175.815 288.578L175.654 287.693L175.355 285.992L174.804 282.716L173.768 276.251C173.145 271.948 172.483 267.664 171.94 263.367C170.797 254.779 169.785 246.194 169.096 237.557L189.746 235.373Z" fill="#F7931A"/>
<path d="M182.046 354.062L156.575 323.991C155.938 323.24 156.032 322.113 156.783 321.476L199.13 285.605C199.882 284.968 201.009 285.062 201.646 285.813L227.118 315.884C227.755 316.635 227.662 317.762 226.909 318.399L184.562 354.27C183.809 354.907 182.683 354.814 182.046 354.062Z" fill="#263238"/>
<path opacity="0.2" d="M182.046 354.062L156.575 323.991C155.938 323.24 156.032 322.113 156.783 321.476L199.13 285.605C199.882 284.968 201.009 285.062 201.646 285.813L227.118 315.884C227.755 316.635 227.662 317.762 226.909 318.399L184.562 354.27C183.809 354.907 182.683 354.814 182.046 354.062Z" fill="white"/>
<path d="M197.435 319.938C197.435 323.024 194.933 325.527 191.846 325.527C188.759 325.527 186.255 323.024 186.255 319.938C186.255 316.851 188.758 314.348 191.846 314.348C194.933 314.347 197.435 316.851 197.435 319.938Z" fill="#263238"/>
<path d="M163.676 169.451C163.676 169.451 153.855 169.334 151.468 180.422C148.979 191.979 148.258 187.425 142.975 192.928C137.692 198.432 143.465 205.891 134.36 210.038C134.36 210.038 141.947 217.419 156.723 214.518C171.5 211.618 169.433 222.141 188.499 219.361C188.499 219.361 185.517 213.842 189.668 208.878C193.819 203.915 190.732 200.294 190.903 195.023C191.075 189.752 192.43 178.292 185.188 173.362C177.947 168.431 171.566 170.586 171.566 170.586C171.566 170.586 167.345 168.879 163.676 169.451Z" fill="#263238"/>
<path d="M189.335 566.02L193.058 581.338H201.124L201.49 566.02H189.335Z" fill="#FF8B7B"/>
<path d="M224.546 592.174C224.109 587.183 221.917 585.693 219.21 585.523C216.394 585.345 206.341 581.979 206.341 581.979C206.341 581.979 204.24 578.809 202.391 578.166C200.54 577.522 198.75 579.408 198.75 579.408L193.686 578.79C193.686 578.79 192.169 576.511 191.124 578.508C189.506 581.601 189.702 590.166 189.852 592.175H224.546V592.174Z" fill="#F7931A"/>
<path d="M223.89 590.869C221.79 590.86 219.7 590.85 217.6 590.84C208.427 590.796 199.255 590.742 190.082 590.698C189.732 590.699 189.803 590.162 190.152 590.171C190.769 590.179 191.398 590.175 192.016 590.181C192.019 590.16 192.033 590.13 192.046 590.11C193.748 587.235 192.613 584.313 190.17 582.856C189.882 582.696 190.224 582.228 190.499 582.398C193.141 583.975 194.291 587.1 192.572 590.177C193.868 590.19 195.155 590.194 196.453 590.198C205.615 590.242 214.787 590.297 223.96 590.342C224.31 590.339 224.239 590.877 223.89 590.869Z" fill="#817474"/>
<path d="M204.821 584.136C206.251 582.457 208.342 581.98 209.866 583.247C210.113 583.452 210.442 582.99 210.198 582.788C208.449 581.333 206.019 581.965 204.397 583.868C204.16 584.148 204.586 584.413 204.821 584.136Z" fill="white"/>
<path d="M207.664 585.031C209.095 583.351 211.186 582.875 212.71 584.142C212.956 584.347 213.286 583.886 213.042 583.682C211.292 582.228 208.862 582.859 207.241 584.762C207.004 585.041 207.429 585.307 207.664 585.031Z" fill="white"/>
<path d="M210.606 585.924C212.036 584.244 214.126 583.768 215.65 585.035C215.897 585.24 216.226 584.778 215.982 584.575C214.234 583.121 211.803 583.753 210.181 585.655C209.945 585.935 210.371 586.2 210.606 585.924Z" fill="white"/>
<path d="M155.967 365.365C157.607 380.801 160.834 400.769 166.674 426.468C168.37 433.936 170.289 441.89 172.459 450.359C166.521 499.391 189.757 570.228 189.757 570.228L202.203 569.95C202.203 569.95 203.764 490.788 202.3 449.344C199.901 381.442 191.63 316.759 191.63 316.759L157.732 316.625C157.732 316.625 151.878 326.831 155.967 365.365Z" fill="#263238"/>
<path opacity="0.2" d="M155.967 365.365C157.607 380.801 160.834 400.769 166.674 426.468C173.808 399.31 160.903 341.349 160.903 341.349L155.967 365.365Z" fill="#817474"/>
<path d="M203.632 572.879L204.025 567.548H187.422L188.361 572.879H203.632Z" fill="#263238"/>
<path d="M137.733 566.02L141.456 581.338H149.522L149.888 566.02H137.733Z" fill="#FF8B7B"/>
<path d="M152.332 572.879L152.725 567.548H136.123L137.061 572.879H152.332Z" fill="#263238"/>
<path d="M172.944 592.174C172.507 587.183 170.314 585.693 167.608 585.523C164.791 585.345 154.738 581.979 154.738 581.979C154.738 581.979 152.638 578.809 150.788 578.166C148.938 577.522 147.148 579.408 147.148 579.408L142.084 578.79C142.084 578.79 140.567 576.511 139.522 578.508C137.905 581.601 138.099 590.166 138.25 592.175H172.944V592.174Z" fill="#F7931A"/>
<path d="M172.287 590.869C170.187 590.86 168.097 590.85 165.997 590.84C156.824 590.796 147.652 590.742 138.479 590.698C138.129 590.699 138.2 590.162 138.55 590.171C139.166 590.179 139.796 590.175 140.412 590.181C140.415 590.16 140.429 590.13 140.442 590.11C142.144 587.235 141.009 584.313 138.566 582.856C138.278 582.696 138.62 582.228 138.895 582.398C141.538 583.975 142.688 587.1 140.968 590.177C142.264 590.19 143.552 590.194 144.849 590.198C154.011 590.242 163.183 590.297 172.356 590.342C172.708 590.339 172.636 590.877 172.287 590.869Z" fill="#817474"/>
<path d="M153.219 584.136C154.649 582.457 156.74 581.98 158.264 583.247C158.511 583.452 158.84 582.99 158.596 582.788C156.848 581.333 154.417 581.965 152.796 583.868C152.558 584.148 152.982 584.413 153.219 584.136Z" fill="white"/>
<path d="M156.062 585.031C157.493 583.351 159.584 582.875 161.108 584.142C161.354 584.347 161.684 583.886 161.44 583.682C159.692 582.228 157.26 582.859 155.639 584.762C155.402 585.041 155.826 585.307 156.062 585.031Z" fill="white"/>
<path d="M159.004 585.924C160.434 584.244 162.524 583.768 164.048 585.035C164.295 585.24 164.624 584.778 164.38 584.575C162.63 583.121 160.201 583.753 158.579 585.655C158.343 585.935 158.769 586.2 159.004 585.924Z" fill="white"/>
<path d="M167.639 319.369C167.639 319.369 161.3 413.101 159.23 450.359C156.863 492.919 151.536 565.465 150.816 570.213H137.953C139.427 571.647 121.442 506.533 128.693 453.516C121.898 402.807 113.628 365.679 124.289 317.935L167.639 319.369Z" fill="#263238"/>
<path d="M120.422 321.633C147.455 330.56 192.885 327.626 192.885 321.438C192.885 303.999 186.711 284.393 188.366 273.032C201.146 264.09 191.16 256.011 192.273 242.758C193.135 232.648 185.973 223.582 175.975 221.858C173.667 221.469 171.275 221.079 168.924 220.774C168.437 220.704 167.965 220.648 167.491 220.594C161.206 219.815 155.226 219.662 148.594 219.703C146.286 219.703 143.894 219.745 141.39 219.773C138.9 219.815 136.468 219.927 134.159 220.093C125.565 220.691 119.348 228.617 120.864 237.128C123.075 249.685 124.328 261.547 124.8 272.324C124.912 274.758 124.995 277.107 125.022 279.417C125.161 288.442 124.744 296.59 123.924 303.613C123.91 303.766 123.882 303.919 123.868 304.058C123.479 307.256 123.006 310.204 122.449 312.902C122.283 313.751 122.101 314.557 121.907 315.349C121.521 317.03 120.867 319.964 120.422 321.633Z" fill="#F7931A"/>
<path opacity="0.2" d="M192.882 321.437C192.882 327.628 147.452 330.562 120.427 321.631C120.869 319.97 121.518 317.024 121.907 315.349C122.102 314.557 122.283 313.753 122.452 312.896C123.01 310.196 123.478 307.25 123.867 304.057C123.88 303.914 123.919 303.758 123.932 303.615C124.75 296.593 125.165 288.442 125.022 279.42C124.996 277.11 124.918 274.761 124.801 272.32C124.646 268.751 124.412 265.078 124.062 261.287C123.854 258.847 123.607 256.355 123.309 253.837C122.686 248.437 121.881 242.856 120.869 237.132C119.35 228.617 125.567 220.686 134.16 220.089C136.471 219.92 138.898 219.816 141.39 219.777C143.895 219.738 146.283 219.7 148.594 219.7C155.227 219.661 161.21 219.816 167.493 220.595C167.973 220.647 168.44 220.699 168.921 220.777C171.27 221.075 173.671 221.465 175.982 221.854C185.976 223.581 193.141 232.654 192.272 242.752C191.168 256.005 201.15 264.091 188.365 273.034C186.716 284.392 192.882 304.005 192.882 321.437Z" fill="white"/>
<path opacity="0.2" d="M137.548 240.974L124.062 261.287C123.854 258.847 123.608 256.355 123.309 253.837V253.785L137.548 240.974Z" fill="#817474"/>
<path d="M168.927 242.891C168.927 243.37 169.315 243.758 169.794 243.758C170.273 243.758 170.661 243.37 170.661 242.891C170.661 242.412 170.273 242.024 169.794 242.024C169.315 242.024 168.927 242.412 168.927 242.891Z" fill="#F7931A"/>
<path d="M170.32 251.551C170.799 251.551 171.187 251.163 171.187 250.684C171.187 250.205 170.799 249.817 170.32 249.817C169.841 249.817 169.453 250.205 169.453 250.684C169.453 251.163 169.841 251.551 170.32 251.551Z" fill="#F7931A"/>
<path d="M170.32 259.482C170.799 259.482 171.187 259.094 171.187 258.615C171.187 258.136 170.799 257.748 170.32 257.748C169.841 257.748 169.453 258.136 169.453 258.615C169.453 259.094 169.841 259.482 170.32 259.482Z" fill="#F7931A"/>
<path d="M148.595 219.702C154.997 230.951 170.056 237.687 170.056 237.687C172.089 232.646 171.452 224.564 168.926 220.773C168.439 220.703 167.967 220.647 167.493 220.592C161.208 219.814 155.229 219.661 148.595 219.702Z" fill="#FF8B7B"/>
<path d="M169.097 224.12C169.151 224.289 169.223 224.459 169.333 224.633C171.511 228.068 169.143 231.205 165.396 230.935C165.031 230.909 164.674 230.858 164.324 230.788C162.978 230.518 161.731 229.826 160.799 228.818C160.795 228.814 160.791 228.809 160.787 228.805C156.297 223.932 151.467 220.239 151.467 220.239C157.098 217.222 159.155 206.503 159.678 199.806L168.42 210.937L170.057 213.367C169.267 214.767 168.559 216.222 168.162 217.664C167.516 219.902 167.581 222.124 169.097 224.12Z" fill="#FF8B7B"/>
<path d="M152.333 219.696C152.333 219.696 147.097 218.334 142.975 219.696L151.467 234.289C155.94 231.03 161.064 235.26 170.057 237.687C170.057 237.687 159.342 232.299 152.333 219.696Z" fill="#F7931A"/>
<path d="M152.333 219.696C152.333 219.696 147.097 218.334 142.975 219.696L151.467 234.289C155.94 231.03 161.064 235.26 170.057 237.687C170.057 237.687 159.342 232.299 152.333 219.696Z" fill="#F7931A"/>
<path d="M167.779 220.363C167.779 220.363 172.967 219.411 175.976 221.857C175.976 221.857 177.71 227.663 178.405 233.341C178.405 233.341 173.413 230.849 170.056 237.687C170.056 237.687 171.755 226.796 167.779 220.363Z" fill="#F7931A"/>
<path d="M167.779 220.363C167.779 220.363 172.967 219.411 175.976 221.857C175.976 221.857 177.71 227.663 178.405 233.341C178.405 233.341 173.413 230.849 170.056 237.687C170.056 237.687 171.755 226.796 167.779 220.363Z" fill="#F7931A"/>
<g opacity="0.2">
<path d="M168.163 217.666C168.56 216.222 169.267 214.768 170.058 213.368L168.421 210.938L162.916 211.064C162.916 211.064 164.361 215.506 168.163 217.666Z" fill="#817474"/>
</g>
<path d="M158.078 187.874C157.202 198.877 156.601 203.516 161.218 209.875C168.163 219.44 181.613 218.058 185.695 207.526C189.37 198.045 190.185 181.643 180.322 175.831C170.605 170.104 158.954 176.871 158.078 187.874Z" fill="#FF8B7B"/>
<path d="M160.496 195.076C154.98 193.61 157.147 187.911 157.147 187.911L165.273 189.171C165.273 189.171 166.013 196.53 160.496 195.076Z" fill="#263238"/>
<path d="M182.769 176.853C182.769 176.853 182.627 182.938 175.164 183.262C167.7 183.587 168.354 194.618 159.996 192.875C151.637 191.132 155.775 180.748 159.345 177.99C162.914 175.231 171.716 166.955 182.769 176.853Z" fill="#263238"/>
<path d="M181.11 204.832C181.11 204.832 175.75 202.409 174.572 200.074C174.572 200.074 173.785 204.248 176.593 205.788C179.4 207.327 181.11 204.832 181.11 204.832Z" fill="white"/>
<path d="M176.185 192.78C176.061 193.668 176.431 194.455 177.011 194.536C177.591 194.618 178.163 193.964 178.288 193.075C178.413 192.187 178.044 191.4 177.463 191.319C176.882 191.238 176.31 191.892 176.185 192.78Z" fill="#263238"/>
<path d="M185.212 194.248C185.087 195.137 185.457 195.923 186.037 196.005C186.617 196.086 187.19 195.432 187.314 194.543C187.439 193.655 187.07 192.869 186.489 192.787C185.907 192.706 185.336 193.36 185.212 194.248Z" fill="#263238"/>
<path d="M186.225 192.801L188.445 192.486C188.445 192.486 187.116 193.999 186.225 192.801Z" fill="#263238"/>
<path d="M181.897 194.065C181.897 194.065 183.097 196.634 184.472 198.912C184.918 199.652 184.585 200.625 183.76 200.894C182.346 201.355 180.867 201.446 180.867 201.446L181.897 194.065Z" fill="#FF5652"/>
<path d="M153.136 194.884C153.818 197.11 155.343 198.661 156.892 199.339C159.222 200.357 160.8 197.867 160.499 195.071C160.228 192.556 158.688 188.994 156.183 189.181C153.714 189.364 152.355 192.34 153.136 194.884Z" fill="#FF8B7B"/>
<path d="M173.753 189.226C173.892 189.226 174.032 189.169 174.134 189.062C175.748 187.353 177.658 187.675 177.681 187.678C177.964 187.727 178.241 187.54 178.293 187.253C178.345 186.967 178.154 186.694 177.869 186.641C177.769 186.623 175.37 186.216 173.369 188.339C173.17 188.55 173.18 188.884 173.391 189.084C173.492 189.18 173.622 189.226 173.753 189.226Z" fill="#263238"/>
<path d="M189.353 190.823C189.483 190.833 189.618 190.798 189.728 190.709C189.954 190.527 189.989 190.195 189.809 189.968C187.981 187.697 185.559 187.911 185.455 187.922C185.166 187.952 184.954 188.209 184.984 188.499C185.013 188.788 185.271 188.999 185.559 188.972C185.654 188.963 187.536 188.824 188.987 190.63C189.082 190.745 189.214 190.813 189.353 190.823Z" fill="#263238"/>
<path d="M177.199 191.333L179.418 191.018C179.418 191.018 178.089 192.531 177.199 191.333Z" fill="#263238"/>
<path d="M109.719 288.571C114.249 295.84 119.298 303.148 124.244 310.352L116.598 317.231C109.745 311.105 103.424 304.693 97.3751 297.657C94.3377 294.127 91.4432 290.453 88.6785 286.196C87.9905 285.119 87.3156 284.002 86.6666 282.756C86.0176 281.51 85.3815 280.173 84.8104 278.486C84.5249 277.655 84.2653 276.695 84.0706 275.526C83.8888 274.371 83.7201 272.969 84.0316 270.996C84.3561 269.192 84.8104 268.115 85.2128 267.141C85.6152 266.181 86.0176 265.467 86.407 264.74C87.9646 262.001 89.4832 260.028 91.0019 258.042C92.5335 256.082 94.0652 254.252 95.6098 252.474C98.7509 248.969 101.892 245.608 105.15 242.389C111.627 235.924 118.234 229.85 125.334 224.035L138.82 239.831L119.402 257.303C116.222 260.249 113.029 263.131 110.057 266.103C108.551 267.557 107.084 269.023 105.734 270.477C104.397 271.892 103.138 273.398 102.359 274.449C102.346 274.475 102.32 274.488 102.307 274.514C102.398 274.761 102.489 275.033 102.593 275.306C102.892 276.072 103.255 276.915 103.644 277.785C105.28 281.264 107.486 284.924 109.719 288.571Z" fill="#F7931A"/>
<path opacity="0.2" d="M109.719 288.571C114.249 295.84 119.298 303.148 124.244 310.352L116.598 317.231C109.745 311.105 103.424 304.693 97.3751 297.657C94.3377 294.127 91.4432 290.453 88.6785 286.196C87.9905 285.119 87.3156 284.002 86.6666 282.756C86.0176 281.51 85.3815 280.173 84.8104 278.486C84.5249 277.655 84.2653 276.695 84.0706 275.526C83.8888 274.371 83.7201 272.969 84.0316 270.996C84.3561 269.192 84.8104 268.115 85.2128 267.141C85.6152 266.181 86.0176 265.467 86.407 264.74C87.9646 262.001 89.4832 260.028 91.0019 258.042C92.5335 256.082 94.0652 254.252 95.6098 252.474C98.7509 248.969 101.892 245.608 105.15 242.389C111.627 235.924 118.234 229.85 125.334 224.035L138.82 239.831L119.402 257.303C116.222 260.249 113.029 263.131 110.057 266.103C108.551 267.557 107.084 269.023 105.734 270.477C104.397 271.892 103.138 273.398 102.359 274.449C102.346 274.475 102.32 274.488 102.307 274.514C102.398 274.761 102.489 275.033 102.593 275.306C102.892 276.072 103.255 276.915 103.644 277.785C105.28 281.264 107.486 284.924 109.719 288.571Z" fill="white"/>
<path d="M123.734 307.131C123.734 307.131 132.358 310.33 133.688 312.009C135.019 313.689 126.552 323.223 123.265 324.557C119.979 325.891 121.671 321.934 121.671 321.934C121.671 321.934 117.427 322.924 115.446 319.703C113.465 316.481 115.803 307.67 123.734 307.131Z" fill="#FF8B7B"/>
<path d="M215.527 331.816C215.527 331.816 216.307 331.643 217.815 329.57C219.113 327.785 219.161 325.972 219.24 324.895L213.795 329.506C213.795 329.506 208.954 327.653 205.967 329.846C199.943 334.273 201.646 339.256 202.342 340.696C203.036 342.137 208.018 341.252 211.469 338.389C214.922 335.527 215.527 331.816 215.527 331.816Z" fill="#FF8B7B"/>
</g>
<defs>
<filter id="filter0_d_55_55" x="-1" y="0" width="657" height="657" filterUnits="userSpaceOnUse" color-interpolation-filters="sRGB">
<feFlood flood-opacity="0" result="BackgroundImageFix"/>
<feColorMatrix in="SourceAlpha" type="matrix" values="0 0 0 0 0 0 0 0 0 0 0 0 0 0 0 0 0 0 127 0" result="hardAlpha"/>
<feOffset dy="4"/>
<feGaussianBlur stdDeviation="2"/>
<feComposite in2="hardAlpha" operator="out"/>
<feColorMatrix type="matrix" values="0 0 0 0 0 0 0 0 0 0 0 0 0 0 0 0 0 0 0.25 0"/>
<feBlend mode="normal" in2="BackgroundImageFix" result="effect1_dropShadow_55_55"/>
<feBlend mode="normal" in="SourceGraphic" in2="effect1_dropShadow_55_55" result="shape"/>
</filter>
<clipPath id="clip0_55_55">
<rect width="649" height="649" fill="white" transform="translate(3)"/>
</clipPath>
</defs>
</svg>
