<svg width="301" height="301" viewBox="0 0 301 301" fill="none" xmlns="http://www.w3.org/2000/svg">
<rect width="301" height="301" fill="none"/>
<path d="M295.474 163.786C302.822 156.438 302.822 144.504 295.474 137.155L220.224 61.9049C212.875 54.5563 200.941 54.5563 193.592 61.9049C186.244 69.2535 186.244 81.1877 193.592 88.5363L236.744 131.688H112.875C102.469 131.688 94.0625 140.094 94.0625 150.5C94.0625 160.906 102.469 169.312 112.875 169.312H236.744L193.592 212.464C186.244 219.812 186.244 231.746 193.592 239.095C200.941 246.444 212.875 246.444 220.224 239.095L295.474 163.845V163.786ZM94.0625 56.4375C104.468 56.4375 112.875 48.0307 112.875 37.625C112.875 27.2193 104.468 18.8125 94.0625 18.8125H56.4375C25.2793 18.8125 0 44.0918 0 75.25V225.75C0 256.908 25.2793 282.188 56.4375 282.188H94.0625C104.468 282.188 112.875 273.781 112.875 263.375C112.875 252.969 104.468 244.562 94.0625 244.562H56.4375C46.0318 244.562 37.625 236.156 37.625 225.75V75.25C37.625 64.8443 46.0318 56.4375 56.4375 56.4375H94.0625Z" fill="#817474"/>
</svg>
