<svg width="245" height="63" viewBox="0 0 245 63" fill="none" xmlns="http://www.w3.org/2000/svg">
<path d="M22.4375 10.4062L9.46875 49H0.375L17.375 3.5H23.1875L22.4375 10.4062ZM33.2812 49L20.25 10.4062L19.4688 3.5H25.3125L42.4062 49H33.2812ZM32.6875 32.0938V38.875H8.28125V32.0938H32.6875ZM66.2188 40.9688V15.1875H74.5312V49H66.7188L66.2188 40.9688ZM67.2812 33.9688L69.8438 33.9062C69.8438 36.1771 69.5938 38.2708 69.0938 40.1875C68.5938 42.1042 67.8125 43.7708 66.75 45.1875C65.7083 46.5833 64.3854 47.6771 62.7812 48.4688C61.1771 49.2396 59.2812 49.625 57.0938 49.625C55.4271 49.625 53.9062 49.3958 52.5312 48.9375C51.1562 48.4583 49.9688 47.7188 48.9688 46.7188C47.9896 45.6979 47.2292 44.3958 46.6875 42.8125C46.1458 41.2083 45.875 39.2812 45.875 37.0312V15.1875H54.125V37.0938C54.125 38.2188 54.25 39.1562 54.5 39.9062C54.7708 40.6562 55.1354 41.2708 55.5938 41.75C56.0729 42.2083 56.625 42.5417 57.25 42.75C57.8958 42.9375 58.5833 43.0312 59.3125 43.0312C61.3125 43.0312 62.8854 42.6354 64.0312 41.8438C65.1979 41.0312 66.0312 39.9479 66.5312 38.5938C67.0312 37.2188 67.2812 35.6771 67.2812 33.9688ZM90.0938 22.0938V49H81.8438V15.1875H89.6562L90.0938 22.0938ZM100.375 14.9688L100.25 22.6562C99.7917 22.5729 99.2708 22.5104 98.6875 22.4688C98.125 22.4271 97.5938 22.4062 97.0938 22.4062C95.8229 22.4062 94.7083 22.5833 93.75 22.9375C92.7917 23.2708 91.9896 23.7604 91.3438 24.4062C90.7188 25.0521 90.2396 25.8438 89.9062 26.7812C89.5729 27.6979 89.3854 28.7396 89.3438 29.9062L87.5625 29.6875C87.5625 27.5417 87.7812 25.5521 88.2188 23.7188C88.6562 21.8854 89.2917 20.2812 90.125 18.9062C90.9583 17.5312 92 16.4688 93.25 15.7188C94.5208 14.9479 95.9792 14.5625 97.625 14.5625C98.0833 14.5625 98.5729 14.6042 99.0938 14.6875C99.6354 14.75 100.062 14.8438 100.375 14.9688ZM113.656 15.1875V49H105.375V15.1875H113.656ZM104.812 6.34375C104.812 5.11458 105.229 4.09375 106.062 3.28125C106.917 2.46875 108.062 2.0625 109.5 2.0625C110.938 2.0625 112.073 2.46875 112.906 3.28125C113.76 4.09375 114.188 5.11458 114.188 6.34375C114.188 7.55208 113.76 8.5625 112.906 9.375C112.073 10.1875 110.938 10.5938 109.5 10.5938C108.062 10.5938 106.917 10.1875 106.062 9.375C105.229 8.5625 104.812 7.55208 104.812 6.34375ZM132.344 49H124.031V12.0625C124.031 9.52083 124.521 7.38542 125.5 5.65625C126.479 3.90625 127.875 2.58333 129.688 1.6875C131.5 0.791667 133.635 0.34375 136.094 0.34375C136.906 0.34375 137.677 0.395833 138.406 0.5C139.156 0.604167 139.896 0.75 140.625 0.9375L140.469 7.21875C140.073 7.11458 139.635 7.04167 139.156 7C138.698 6.95833 138.188 6.9375 137.625 6.9375C136.5 6.9375 135.542 7.13542 134.75 7.53125C133.958 7.92708 133.354 8.51042 132.938 9.28125C132.542 10.0312 132.344 10.9583 132.344 12.0625V49ZM139.188 15.1875V21.125H118.938V15.1875H139.188ZM154.188 45.25L163.25 15.1875H172.094L158.531 54.125C158.219 54.9583 157.812 55.8646 157.312 56.8438C156.833 57.8229 156.188 58.75 155.375 59.625C154.562 60.5208 153.542 61.25 152.312 61.8125C151.104 62.375 149.635 62.6562 147.906 62.6562C147.156 62.6562 146.49 62.6042 145.906 62.5C145.323 62.3958 144.708 62.2604 144.062 62.0938V55.9062C144.271 55.9271 144.51 55.9375 144.781 55.9375C145.073 55.9583 145.323 55.9688 145.531 55.9688C146.74 55.9688 147.74 55.8229 148.531 55.5312C149.323 55.2604 149.958 54.8125 150.438 54.1875C150.938 53.5833 151.354 52.7917 151.688 51.8125L154.188 45.25ZM149.719 15.1875L157.375 40.0938L158.719 48.8125L153.031 49.8438L140.812 15.1875H149.719ZM210.75 10.4062L197.781 49H188.688L205.688 3.5H211.5L210.75 10.4062ZM221.594 49L208.562 10.4062L207.781 3.5H213.625L230.719 49H221.594ZM221 32.0938V38.875H196.594V32.0938H221ZM244.562 3.5V49H235.969V3.5H244.562Z" fill="#F7931A"/>
</svg>
