<svg width="32" height="32" viewBox="0 0 32 32" fill="none" xmlns="http://www.w3.org/2000/svg">
<path d="M11.1993 22.6667L15.9993 17.8667L20.7993 22.6667L22.666 20.8L17.866 16L22.666 11.2L20.7993 9.33335L15.9993 14.1334L11.1993 9.33335L9.33268 11.2L14.1327 16L9.33268 20.8L11.1993 22.6667ZM15.9993 29.3334C14.1549 29.3334 12.4216 28.9831 10.7994 28.2827C9.17713 27.5822 7.76602 26.6325 6.56602 25.4334C5.36602 24.2342 4.41624 22.8231 3.71668 21.2C3.01713 19.5769 2.66691 17.8436 2.66602 16C2.66513 14.1565 3.01535 12.4231 3.71668 10.8C4.41802 9.17691 5.36779 7.7658 6.56602 6.56669C7.76424 5.36758 9.17535 4.4178 10.7994 3.71735C12.4234 3.01691 14.1567 2.66669 15.9993 2.66669C17.842 2.66669 19.5753 3.01691 21.1993 3.71735C22.8233 4.4178 24.2345 5.36758 25.4327 6.56669C26.6309 7.7658 27.5811 9.17691 28.2833 10.8C28.9856 12.4231 29.3354 14.1565 29.3327 16C29.33 17.8436 28.9798 19.5769 28.282 21.2C27.5842 22.8231 26.6345 24.2342 25.4327 25.4334C24.2309 26.6325 22.8198 27.5827 21.1993 28.284C19.5789 28.9854 17.8456 29.3351 15.9993 29.3334Z" fill="#5D4D4D"/>
</svg>
