<svg width="43" height="43" viewBox="0 0 43 43" fill="none" xmlns="http://www.w3.org/2000/svg">
<path d="M35.0191 32.1677C35.3978 32.5464 35.6105 33.0599 35.6105 33.5954C35.6105 34.131 35.3978 34.6445 35.0191 35.0232C34.6405 35.4018 34.1269 35.6146 33.5914 35.6146C33.0559 35.6146 32.5423 35.4018 32.1637 35.0232L21.4993 24.3555L10.8316 35.0198C10.453 35.3985 9.93939 35.6112 9.40389 35.6112C8.86838 35.6112 8.35481 35.3985 7.97615 35.0198C7.59749 34.6412 7.38477 34.1276 7.38477 33.5921C7.38477 33.0566 7.59749 32.543 7.97615 32.1644L18.6438 21.5L7.97951 10.8323C7.60085 10.4537 7.38813 9.94009 7.38813 9.40459C7.38813 8.86909 7.60085 8.35551 7.97951 7.97686C8.35817 7.5982 8.87174 7.38547 9.40725 7.38547C9.94275 7.38547 10.4563 7.5982 10.835 7.97686L21.4993 18.6446L32.167 7.97518C32.5457 7.59652 33.0592 7.38379 33.5947 7.38379C34.1302 7.38379 34.6438 7.59652 35.0225 7.97518C35.4011 8.35383 35.6139 8.86741 35.6139 9.40291C35.6139 9.93841 35.4011 10.452 35.0225 10.8306L24.3548 21.5L35.0191 32.1677Z" fill="#817474"/>
</svg>
