<svg width="39" height="39" viewBox="0 0 39 39" fill="none" xmlns="http://www.w3.org/2000/svg">
<path d="M34.2621 10.5308L26.8506 15.0973L19.7438 5.61767C19.7152 5.57952 19.6781 5.54855 19.6355 5.52722C19.5928 5.50589 19.5458 5.49478 19.4981 5.49478C19.4504 5.49478 19.4034 5.50589 19.3608 5.52722C19.3181 5.54855 19.2811 5.57952 19.2525 5.61767L12.1494 15.0973L4.7341 10.5308C4.51701 10.3975 4.23518 10.5765 4.26945 10.8316L7.17922 32.9443C7.22111 33.2452 7.4801 33.4775 7.78859 33.4775H31.2153C31.5199 33.4775 31.7827 33.249 31.8208 32.9443L34.7306 10.8316C34.7611 10.5765 34.483 10.3975 34.2621 10.5308ZM29.4633 30.8725H9.53293L7.48391 15.2801L12.8083 18.5593L19.5 9.63193L26.1917 18.5593L31.5161 15.2801L29.4633 30.8725ZM19.5 19.3857C17.1349 19.3857 15.2115 21.3091 15.2115 23.6742C15.2115 26.0394 17.1349 27.9627 19.5 27.9627C21.8652 27.9627 23.7885 26.0394 23.7885 23.6742C23.7885 21.3091 21.8652 19.3857 19.5 19.3857ZM19.5 25.5138C18.4869 25.5138 17.6643 24.6911 17.6643 23.6742C17.6643 22.6611 18.4869 21.8347 19.5 21.8347C20.5131 21.8347 21.3358 22.6573 21.3358 23.6742C21.3358 24.6873 20.5131 25.5138 19.5 25.5138Z" fill="#F7931A"/>
</svg>
