<svg width="35" height="35" viewBox="0 0 35 35" fill="none" xmlns="http://www.w3.org/2000/svg">
<path d="M17.5003 5.83335C14.4061 5.83335 11.4387 7.06252 9.25075 9.25044C7.06282 11.4384 5.83366 14.4058 5.83366 17.5H10.2087C10.9822 17.5 11.7241 17.8073 12.2711 18.3543C12.818 18.9013 13.1253 19.6431 13.1253 20.4167V27.7084C13.1253 28.4819 12.818 29.2238 12.2711 29.7707C11.7241 30.3177 10.9822 30.625 10.2087 30.625H5.83366C5.06011 30.625 4.31824 30.3177 3.77126 29.7707C3.22428 29.2238 2.91699 28.4819 2.91699 27.7084V17.5C2.91699 9.44565 9.44595 2.91669 17.5003 2.91669C25.5547 2.91669 32.0837 9.44565 32.0837 17.5V27.7084C32.0837 28.4819 31.7764 29.2238 31.2294 29.7707C30.6824 30.3177 29.9405 30.625 29.167 30.625H24.792C24.0184 30.625 23.2766 30.3177 22.7296 29.7707C22.1826 29.2238 21.8753 28.4819 21.8753 27.7084V20.4167C21.8753 19.6431 22.1826 18.9013 22.7296 18.3543C23.2766 17.8073 24.0184 17.5 24.792 17.5H29.167C29.167 14.4058 27.9378 11.4384 25.7499 9.25044C23.562 7.06252 20.5945 5.83335 17.5003 5.83335ZM5.83366 20.4167V27.7084H10.2087V20.4167H5.83366ZM24.792 20.4167V27.7084H29.167V20.4167H24.792Z" fill="#817474"/>
</svg>
