<svg width="40" height="41" viewBox="0 0 40 41" fill="none" xmlns="http://www.w3.org/2000/svg">
<path d="M10.1033 33.6667H8.69333C7.92556 33.6667 7.285 33.41 6.77167 32.8967C6.25833 32.3833 6.00111 31.7422 6 30.9733V20.3333C6 18.4833 6.34778 16.7506 7.04333 15.135C7.73889 13.5194 8.69111 12.1078 9.9 10.9C11.1089 9.69223 12.52 8.74 14.1333 8.04334C15.7467 7.34667 17.48 6.99889 19.3333 7C21.1867 7.00111 22.92 7.34889 24.5333 8.04334C26.1467 8.73778 27.5578 9.69 28.7667 10.9C29.9756 12.11 30.9272 13.5217 31.6217 15.135C32.3161 16.7483 32.6644 18.4811 32.6667 20.3333V30.975C32.6667 31.7417 32.41 32.3817 31.8967 32.895C31.3833 33.4083 30.7422 33.6656 29.9733 33.6667H28.5633C27.8233 33.6667 27.19 33.4028 26.6633 32.875C26.1367 32.3472 25.8728 31.7139 25.8717 30.975V26.1C25.8717 25.36 26.1356 24.7267 26.6633 24.2C27.1911 23.6733 27.8244 23.4094 28.5633 23.4083H31V20.3333C31 17.0833 29.8683 14.3267 27.605 12.0633C25.3417 9.8 22.5844 8.66778 19.3333 8.66667C16.0822 8.66556 13.3256 9.79778 11.0633 12.0633C8.80111 14.3289 7.66889 17.0856 7.66667 20.3333V23.41H10.1033C10.8433 23.41 11.4767 23.6739 12.0033 24.2017C12.53 24.7294 12.7939 25.3628 12.795 26.1017V30.975C12.795 31.715 12.5311 32.3483 12.0033 32.875C11.4756 33.4017 10.8411 33.6656 10.1033 33.6667Z" fill="#817474"/>
</svg>
