<svg width="27" height="27" viewBox="0 0 27 27" fill="none" xmlns="http://www.w3.org/2000/svg">
<path d="M13.5008 22.95C14.992 22.95 16.2008 21.7412 16.2008 20.25C16.2008 18.7588 14.992 17.55 13.5008 17.55C12.0096 17.55 10.8008 18.7588 10.8008 20.25C10.8008 21.7412 12.0096 22.95 13.5008 22.95Z" fill="#817474"/>
<path d="M13.5008 16.2C14.992 16.2 16.2008 14.9912 16.2008 13.5C16.2008 12.0088 14.992 10.8 13.5008 10.8C12.0096 10.8 10.8008 12.0088 10.8008 13.5C10.8008 14.9912 12.0096 16.2 13.5008 16.2Z" fill="#817474"/>
<path d="M13.5008 9.44999C14.992 9.44999 16.2008 8.24116 16.2008 6.74999C16.2008 5.25882 14.992 4.04999 13.5008 4.04999C12.0096 4.04999 10.8008 5.25882 10.8008 6.74999C10.8008 8.24116 12.0096 9.44999 13.5008 9.44999Z" fill="#817474"/>
</svg>
