<svg width="27" height="27" viewBox="0 0 27 27" fill="none" xmlns="http://www.w3.org/2000/svg">
<path d="M13.5 1.6875C11.1637 1.6875 8.87989 2.38029 6.93733 3.67827C4.99478 4.97624 3.48074 6.8211 2.58668 8.97955C1.69262 11.138 1.45869 13.5131 1.91448 15.8045C2.37027 18.0959 3.4953 20.2007 5.14731 21.8527C6.79931 23.5047 8.9041 24.6297 11.1955 25.0855C13.4869 25.5413 15.862 25.3074 18.0205 24.4133C20.1789 23.5193 22.0238 22.0052 23.3217 20.0627C24.6197 18.1201 25.3125 15.8363 25.3125 13.5C25.3125 10.3671 24.068 7.36258 21.8527 5.1473C19.6374 2.93203 16.6329 1.6875 13.5 1.6875ZM19.7834 14.2552L9.65841 19.3177C9.52974 19.382 9.38677 19.4123 9.24308 19.4058C9.09939 19.3993 8.95975 19.3561 8.83742 19.2805C8.71509 19.2048 8.61413 19.0991 8.54414 18.9735C8.47415 18.8478 8.43744 18.7063 8.43751 18.5625V8.4375C8.43758 8.29373 8.47439 8.15237 8.54445 8.02682C8.6145 7.90128 8.71547 7.79571 8.83778 7.72015C8.96008 7.64458 9.09967 7.60152 9.24329 7.59506C9.38691 7.58859 9.52981 7.61892 9.65841 7.68319L19.7834 12.7457C19.9234 12.8158 20.0411 12.9235 20.1233 13.0568C20.2055 13.19 20.2491 13.3434 20.2491 13.5C20.2491 13.6566 20.2055 13.81 20.1233 13.9432C20.0411 14.0765 19.9234 14.1842 19.7834 14.2543" fill="#817474"/>
</svg>
