<svg width="35" height="38" viewBox="0 0 35 38" fill="none" xmlns="http://www.w3.org/2000/svg">
<g clip-path="url(#clip0_801_27)">
<path d="M24.4575 18.1128C19.4486 18.1128 15.3733 22.5208 15.3733 27.9386C15.3733 33.3564 19.4486 37.7644 24.4575 37.7644C29.4664 37.7644 33.5417 33.3564 33.5417 27.9386C33.5417 22.5208 29.4664 18.1128 24.4575 18.1128ZM24.4575 36.2527C20.22 36.2527 16.7708 32.5235 16.7708 27.9386C16.7708 23.3538 20.22 19.6245 24.4575 19.6245C28.6949 19.6245 32.1441 23.3538 32.1441 27.9386C32.1441 32.5235 28.6949 36.2527 24.4575 36.2527ZM29.1393 25.8873C29.4077 26.1881 29.4007 26.6658 29.1225 26.956L25.3449 30.9075C24.8418 31.4441 24.1779 31.7147 23.5127 31.7147C22.8475 31.7147 22.185 31.4472 21.6791 30.9105L19.7728 28.8773C19.4989 28.5841 19.4961 28.1049 19.7672 27.8086C20.0383 27.5108 20.4814 27.5078 20.7553 27.801L22.6588 29.8327C23.127 30.3316 23.8956 30.3301 24.3666 29.8267L28.1498 25.8707C28.4266 25.5819 28.8724 25.588 29.1379 25.8888L29.1393 25.8873ZM20.2648 13.5779H6.28906C5.90333 13.5779 5.59028 13.2393 5.59028 12.822C5.59028 12.4048 5.90333 12.0662 6.28906 12.0662H20.2648C20.6505 12.0662 20.9635 12.4048 20.9635 12.822C20.9635 13.2393 20.6505 13.5779 20.2648 13.5779ZM15.3733 37.0085C15.3733 37.4258 15.0602 37.7644 14.6745 37.7644H5.59028C2.50724 37.7644 0 35.0525 0 31.7178V10.5546C0 7.7459 1.78749 5.3983 4.19271 4.72259V2.24045C4.19271 1.82323 4.50576 1.48462 4.89149 1.48462C5.27722 1.48462 5.59028 1.82323 5.59028 2.24045V4.50793H9.78299V2.24045C9.78299 1.82323 10.096 1.48462 10.4818 1.48462C10.8675 1.48462 11.1806 1.82323 11.1806 2.24045V4.50793H15.3733V2.24045C15.3733 1.82323 15.6863 1.48462 16.072 1.48462C16.4578 1.48462 16.7708 1.82323 16.7708 2.24045V4.50793H20.9635V2.24045C20.9635 1.82323 21.2766 1.48462 21.6623 1.48462C22.0481 1.48462 22.3611 1.82323 22.3611 2.24045V4.72259C24.7663 5.3983 26.5538 7.7459 26.5538 10.5546V14.3337C26.5538 14.7509 26.2408 15.0895 25.855 15.0895C25.4693 15.0895 25.1562 14.7509 25.1562 14.3337V10.5546C25.1562 8.05428 23.2751 6.01959 20.9635 6.01959H5.59028C3.2787 6.01959 1.39757 8.05428 1.39757 10.5546V31.7178C1.39757 34.218 3.2787 36.2527 5.59028 36.2527H14.6745C15.0602 36.2527 15.3733 36.5913 15.3733 37.0085ZM15.3733 19.6245H6.28906C5.90333 19.6245 5.59028 19.2859 5.59028 18.8687C5.59028 18.4515 5.90333 18.1128 6.28906 18.1128H15.3733C15.759 18.1128 16.072 18.4515 16.072 18.8687C16.072 19.2859 15.759 19.6245 15.3733 19.6245ZM11.8793 24.1595C12.2651 24.1595 12.5781 24.4981 12.5781 24.9153C12.5781 25.3325 12.2651 25.6711 11.8793 25.6711H6.28906C5.90333 25.6711 5.59028 25.3325 5.59028 24.9153C5.59028 24.4981 5.90333 24.1595 6.28906 24.1595H11.8793Z" fill="#817474"/>
</g>
<defs>
<clipPath id="clip0_801_27">
<rect width="35" height="37.8571" fill="white"/>
</clipPath>
</defs>
</svg>
