<svg width="35" height="35" viewBox="0 0 35 35" fill="none" xmlns="http://www.w3.org/2000/svg">
<path d="M31.7188 5.50293H23.8984C22.2202 5.50293 20.5796 5.98486 19.168 6.89404L17.5 7.96387L15.832 6.89404C14.4218 5.98504 12.7794 5.50203 11.1016 5.50293H3.28125C2.67627 5.50293 2.1875 5.9917 2.1875 6.59668V26.0107C2.1875 26.6157 2.67627 27.1045 3.28125 27.1045H11.1016C12.7798 27.1045 14.4204 27.5864 15.832 28.4956L17.3496 29.4731C17.394 29.5005 17.4453 29.5176 17.4966 29.5176C17.5479 29.5176 17.5991 29.5039 17.6436 29.4731L19.1611 28.4956C20.5762 27.5864 22.2202 27.1045 23.8984 27.1045H31.7188C32.3237 27.1045 32.8125 26.6157 32.8125 26.0107V6.59668C32.8125 5.9917 32.3237 5.50293 31.7188 5.50293ZM13.8086 18.9185C13.8086 19.0586 13.6992 19.1748 13.5659 19.1748H7.21533C7.08203 19.1748 6.97266 19.0586 6.97266 18.9185V17.3804C6.97266 17.2402 7.08203 17.124 7.21533 17.124H13.5625C13.6958 17.124 13.8052 17.2402 13.8052 17.3804V18.9185H13.8086ZM13.8086 14.1333C13.8086 14.2734 13.6992 14.3897 13.5659 14.3897H7.21533C7.08203 14.3897 6.97266 14.2734 6.97266 14.1333V12.5952C6.97266 12.4551 7.08203 12.3389 7.21533 12.3389H13.5625C13.6958 12.3389 13.8052 12.4551 13.8052 12.5952V14.1333H13.8086ZM28.0273 18.9185C28.0273 19.0586 27.918 19.1748 27.7847 19.1748H21.4341C21.3008 19.1748 21.1914 19.0586 21.1914 18.9185V17.3804C21.1914 17.2402 21.3008 17.124 21.4341 17.124H27.7812C27.9146 17.124 28.0239 17.2402 28.0239 17.3804V18.9185H28.0273ZM28.0273 14.1333C28.0273 14.2734 27.918 14.3897 27.7847 14.3897H21.4341C21.3008 14.3897 21.1914 14.2734 21.1914 14.1333V12.5952C21.1914 12.4551 21.3008 12.3389 21.4341 12.3389H27.7812C27.9146 12.3389 28.0239 12.4551 28.0239 12.5952V14.1333H28.0273Z" fill="#817474"/>
</svg>
