<svg width="115" height="115" viewBox="0 0 115 115" fill="none" xmlns="http://www.w3.org/2000/svg">
<path d="M93.0056 35.5062L69.8618 12.3625C68.0889 10.5896 65.6452 9.58331 63.1056 9.58331H28.7493C23.4785 9.58331 19.2139 13.8958 19.2139 19.1666L19.166 95.8333C19.166 101.104 23.4306 105.417 28.7014 105.417H86.2493C91.5202 105.417 95.8327 101.104 95.8327 95.8333V42.3104C95.8327 39.7708 94.8264 37.3271 93.0056 35.5062ZM70.916 71.875H62.291V86.25C62.291 88.8854 60.1348 91.0416 57.4993 91.0416C54.8639 91.0416 52.7077 88.8854 52.7077 86.25V71.875H44.1306C41.9743 71.875 40.9202 69.2875 42.4535 67.8021L55.8702 54.4333C56.8285 53.5229 58.3139 53.5229 59.2723 54.4333L72.641 67.8021C74.0785 69.2875 73.0243 71.875 70.916 71.875ZM67.0827 43.125C64.4473 43.125 62.291 40.9687 62.291 38.3333V16.7708L88.6452 43.125H67.0827Z" fill="#817474"/>
</svg>
