<svg width="21" height="30" viewBox="0 0 21 30" fill="none" xmlns="http://www.w3.org/2000/svg">
<g clip-path="url(#clip0_69_1236)">
<path d="M3.93717 20.8334C3.74379 20.8334 3.55832 20.9102 3.42158 21.0469C3.28483 21.1837 3.20801 21.3692 3.20801 21.5625C3.20801 21.7559 3.28483 21.9414 3.42158 22.0781C3.55832 22.2149 3.74379 22.2917 3.93717 22.2917H17.0622C17.2556 22.2917 17.441 22.2149 17.5778 22.0781C17.7145 21.9414 17.7913 21.7559 17.7913 21.5625C17.7913 21.3692 17.7145 21.1837 17.5778 21.0469C17.441 20.9102 17.2556 20.8334 17.0622 20.8334H3.93717ZM3.20801 24.4792C3.20801 24.2858 3.28483 24.1004 3.42158 23.9636C3.55832 23.8269 3.74379 23.75 3.93717 23.75H12.6872C12.8806 23.75 13.066 23.8269 13.2028 23.9636C13.3395 24.1004 13.4163 24.2858 13.4163 24.4792C13.4163 24.6726 13.3395 24.8581 13.2028 24.9948C13.066 25.1316 12.8806 25.2084 12.6872 25.2084H3.93717C3.74379 25.2084 3.55832 25.1316 3.42158 24.9948C3.28483 24.8581 3.20801 24.6726 3.20801 24.4792Z" fill="white"/>
<path fill-rule="evenodd" clip-rule="evenodd" d="M8.25608 8.88596C8.2007 8.75311 8.10724 8.63963 7.98747 8.5598C7.86771 8.47997 7.72699 8.43738 7.58306 8.43738C7.43913 8.43738 7.29842 8.47997 7.17866 8.5598C7.05889 8.63963 6.96543 8.75311 6.91004 8.88596L4.1815 15.4339L4.16911 15.4645L3.26421 17.636C3.18976 17.8145 3.18926 18.0152 3.26283 18.1941C3.3364 18.3729 3.47801 18.5153 3.6565 18.5897C3.835 18.6642 4.03576 18.6647 4.21462 18.5911C4.39349 18.5175 4.5358 18.3759 4.61025 18.1974L5.33504 16.4584H9.83109L10.5559 18.1974C10.6303 18.3759 10.7726 18.5175 10.9515 18.5911C11.1304 18.6647 11.3311 18.6642 11.5096 18.5897C11.6881 18.5153 11.8297 18.3729 11.9033 18.1941C11.9769 18.0152 11.9764 17.8145 11.9019 17.636L10.997 15.4645L10.9846 15.4339L8.25608 8.88596ZM7.58306 11.0625L9.22369 15H5.94244L7.58306 11.0625Z" fill="white"/>
<path d="M14.8747 12.8125C15.0681 12.8125 15.2535 12.8893 15.3903 13.0261C15.527 13.1628 15.6038 13.3483 15.6038 13.5417V15H17.0622C17.2556 15 17.441 15.0768 17.5778 15.2136C17.7145 15.3503 17.7913 15.5358 17.7913 15.7292C17.7913 15.9226 17.7145 16.108 17.5778 16.2448C17.441 16.3815 17.2556 16.4583 17.0622 16.4583H15.6038V17.9167C15.6038 18.1101 15.527 18.2955 15.3903 18.4323C15.2535 18.569 15.0681 18.6458 14.8747 18.6458C14.6813 18.6458 14.4958 18.569 14.3591 18.4323C14.2223 18.2955 14.1455 18.1101 14.1455 17.9167V16.4583H12.6872C12.4938 16.4583 12.3083 16.3815 12.1716 16.2448C12.0348 16.108 11.958 15.9226 11.958 15.7292C11.958 15.5358 12.0348 15.3503 12.1716 15.2136C12.3083 15.0768 12.4938 15 12.6872 15H14.1455V13.5417C14.1455 13.3483 14.2223 13.1628 14.3591 13.0261C14.4958 12.8893 14.6813 12.8125 14.8747 12.8125Z" fill="white"/>
<path fill-rule="evenodd" clip-rule="evenodd" d="M20.7082 8.43752L13.4165 0.416687H3.20817C2.43462 0.416687 1.69276 0.723978 1.14578 1.27096C0.598795 1.81794 0.291504 2.55981 0.291504 3.33335V26.6667C0.291504 27.4402 0.598795 28.1821 1.14578 28.7291C1.69276 29.2761 2.43462 29.5834 3.20817 29.5834H17.7915C18.5651 29.5834 19.3069 29.2761 19.8539 28.7291C20.4009 28.1821 20.7082 27.4402 20.7082 26.6667V8.43752ZM12.6873 8.43752C12.6873 8.63091 12.7642 8.81637 12.9009 8.95312C13.0376 9.08986 13.2231 9.16669 13.4165 9.16669H19.2498V26.6667C19.2498 27.0535 19.0962 27.4244 18.8227 27.6979C18.5492 27.9714 18.1783 28.125 17.7915 28.125H3.20817C2.8214 28.125 2.45046 27.9714 2.17697 27.6979C1.90348 27.4244 1.74984 27.0535 1.74984 26.6667V3.33335C1.74984 2.94658 1.90348 2.57565 2.17697 2.30216C2.45046 2.02867 2.8214 1.87502 3.20817 1.87502H12.6873V8.43752ZM18.0744 7.70835L14.1457 3.38658V7.70835H18.0744Z" fill="white"/>
</g>
<defs>
<clipPath id="clip0_69_1236">
<rect width="21" height="30" fill="white"/>
</clipPath>
</defs>
</svg>
